<?xml version="1.0" encoding="utf-8"?>
<!-- Generator: Adobe Illustrator 27.5.0, SVG Export Plug-In . SVG Version: 6.00 Build 0)  -->
<svg version="1.1" id="Слой_1" xmlns="http://www.w3.org/2000/svg" xmlns:xlink="http://www.w3.org/1999/xlink" x="0px" y="0px"
	 viewBox="0 0 3000 2000" style="enable-background:new 0 0 3000 2000;" xml:space="preserve">
<rect style="fill:#FFFFFF;" width="3000" height="2000"/>
<g>
	<path style="fill:#EBF3FA;" d="M386.066,1742.479c0,0-270.328-236.257-217.783-625.289
		c54.408-402.818,340.437-617.133,713.586-535.793c305.01,66.487,501.506,23.839,816.926-166.218
		c517.229-311.659,1183.894,25.749,1009.486,629.612c-84.401,292.227,269.816,436.619-26.682,698.306L386.066,1742.479z"/>
	<g>
		<path style="fill:#AFCDFB;" d="M1984.7,693.25c0,0,167.917-169.718,217.598-132.961C2251.979,597.046,1984.7,693.25,1984.7,693.25
			z"/>
		<path style="fill:#AFCDFB;" d="M1973.169,725.263c0,0,317.336-153.805,395.771-79.969c78.435,73.835-86.255,69.44-147.395,62.772
			C2160.406,701.398,1973.169,725.263,1973.169,725.263z"/>
		<path style="fill:#AFCDFB;" d="M1958.585,690.42c0,0,1.266-8.143,2.968-20.06c3.32-23.246,8.302-60.852,8.78-80.374
			c0.725-29.528,23.799-51.181,50.737-21.961c26.939,29.22-52.727,114.001-52.727,114.001L1958.585,690.42z"/>
	</g>
	<path style="fill:#CDE0FB;" d="M1125.473,982.651c14.699-47.72,95.464-29.877,95.464-29.877s52.298,86.188,68.285,88.747
		c15.987,2.558-30.324-82.42-30.324-82.42c31.211-1.942,109.177,38.912,109.177,38.912s-8.394,98.17,7.731,96.714
		s2.998-87.304,2.998-87.304c29.794,10.065,56.686,46.152,56.686,46.152c33.158,58.404-43.55,97.967-43.55,97.967
		s-2.175,34.084,17.554,73.943l0.001,0.001c0,0,4.507,7.389,8.92,19.837l-8.208-0.282c-0.595-2.224-1.261-4.376-2.009-6.446
		c0-0.017-0.004-0.027-0.015-0.038c-0.011-0.03-0.022-0.06-0.033-0.09c-0.519-1.287-1.264-3.119-2.196-5.353
		c-0.001-0.003-0.002-0.006-0.004-0.008c0-0.006-0.005-0.006-0.005-0.012c-2.338-4.994-3.908-8.679-4.89-11.333
		c-0.004-0.009-0.006-0.017-0.007-0.024c-6.984-15.667-17.119-36.114-24.193-40.573c0,0,0.952-1.247,1.886-3.704
		c-0.602,1.182-1.229,2.412-1.886,3.704c-15.083,29.622-85.499,32.228-124.359,22.856c-38.86-9.372-21.422-19.824,0.266-37.017
		c21.688-17.191,65.68-10.953,78.966-17.529c13.286-6.577-5.539-14.256-31.698-13.145c-26.16,1.111-40.101,26.754-82.385,29.321
		c-42.285,2.566-71.674-77.812-71.674-77.812c28.792,10.03,81.524-4.233,83.875-14.2c2.351-9.966-74.952-11.615-86.89-15.039
		S1110.774,1030.371,1125.473,982.651z"/>
	<path style="fill:#CDE0FB;" d="M2357.83,1042.616c-14.877-38.482-80.414-19.102-80.414-19.102s-38.118,74.065-51.147,77.1
		c-13.029,3.033,20.226-69.688,20.226-69.688c-25.839,0.205-87.737,38.391-87.737,38.391s12.6,80.43-0.775,80.163
		c-13.375-0.268-7.522-71.786-7.522-71.786c-23.976,10.021-44.053,41.32-44.053,41.32c-23.95,50.059,41.565,78.229,41.565,78.229
		s3.765,27.967-10.19,61.962v0.001c0,0-3.288,6.352-6.205,16.867l6.748-0.707c0.361-1.867,0.786-3.681,1.283-5.431
		c-0.002-0.013,0.002-0.021,0.01-0.031c0.007-0.025,0.015-0.051,0.021-0.076c0.354-1.091,0.862-2.645,1.501-4.539
		c0.001-0.002,0.001-0.005,0.002-0.007c0-0.004,0.005-0.005,0.004-0.009c1.639-4.253,2.72-7.38,3.374-9.625
		c0.003-0.007,0.005-0.014,0.005-0.021c4.851-13.317,12.02-30.758,17.593-34.842c0,0-0.856-0.973-1.769-2.944
		c0.563,0.938,1.152,1.918,1.769,2.944c14.146,23.543,72.336,21.615,103.824,11.643c31.488-9.974,16.51-17.58-2.361-30.494
		c-18.871-12.916-54.77-5.228-66.102-9.88c-11.332-4.651,3.74-12.07,25.366-12.668s34.601,19.73,69.602,19.399
		s54.573-68.282,54.573-68.282c-23.15,9.934-67.439,1.229-69.954-6.85c-2.515-8.079,61.105-13.911,70.747-17.425
		C2357.455,1102.716,2372.707,1081.098,2357.83,1042.616z"/>
	<path style="fill:#AFCDFB;" d="M1170.376,531.258c38.078-74.019,165.412-21.118,165.412-21.118s60.628,156.743,86.118,165.616
		c25.49,8.873-25.667-144.133-25.667-144.133c51.792,5.939,167.803,95.786,167.803,95.786s-42.481,158.661-15.592,160.986
		c26.889,2.326,30.447-142.405,30.447-142.405c45.955,25.23,79.538,92.319,79.538,92.319
		c37.341,105.549-100.121,148.048-100.121,148.048s-13.536,55.302,7.188,126.487c0,0.001,0.002,0.003,0.002,0.003
		s5.236,13.444,8.839,35.165l-13.387-2.862c-0.326-3.824-0.79-7.552-1.412-11.169c0.006-0.025,0.001-0.045-0.013-0.065
		c-0.009-0.053-0.02-0.104-0.027-0.157c-0.475-2.265-1.164-5.489-2.04-9.427c-0.001-0.005-0.002-0.01-0.004-0.015
		c0.002-0.009-0.007-0.011-0.005-0.02c-2.377-8.881-3.876-15.386-4.711-20.03c-0.004-0.015-0.005-0.028-0.005-0.043
		c-6.882-27.753-17.534-64.275-27.841-73.662c0,0,1.927-1.768,4.179-5.528c-1.333,1.763-2.722,3.601-4.179,5.528
		c-33.415,44.205-149.743,27.892-210.78,1.148c-61.037-26.744-29.361-38.8,11.261-60.673c40.622-21.873,110.996,1.229,134.725-5.679
		c23.729-6.908-4.922-25.015-48.179-30.841c-43.258-5.826-73.636,32.182-143.783,24.031
		c-70.147-8.151-94.878-148.661-94.878-148.661c44.318,24.881,135.034,16.89,141.807,1.222
		c6.773-15.669-119.613-40.979-138.205-50.09C1158.273,651.911,1132.299,605.277,1170.376,531.258z"/>
	<g>
		<rect x="1363.933" y="639.717" style="fill:#FFFFFF;" width="815.394" height="1102.644"/>
		<rect x="1389.389" y="661.187" style="fill:#E7EDFF;" width="757.435" height="1053.624"/>
		<g>
			<defs>
				<rect id="SVGID_1_" x="1441.101" y="732.969" width="198.425" height="198.425"/>
			</defs>
			<use xlink:href="#SVGID_1_"  style="overflow:visible;fill:#FFFFFF;"/>
			<clipPath id="SVGID_00000003074055896518889590000017995763182382080401_">
				<use xlink:href="#SVGID_1_"  style="overflow:visible;"/>
			</clipPath>
			<g style="clip-path:url(#SVGID_00000003074055896518889590000017995763182382080401_);">
				<polygon style="fill:#88A0E2;" points="1606.206,1123.291 1449.314,1123.291 1561.785,871.097 1600.701,958.281 
					1614.916,1043.06 				"/>
				<path style="fill:#FFFFFF;" d="M1483.694,877.618l25.131-6.521l24.411-8.651c0,0,14.165,6.771,24.262,8.651
					c10.992,2.048,47.684,63.34,47.684,65.902c0,2.561-28.693,185.046-28.693,185.046h-138.514L1483.694,877.618z"/>
				<path style="fill:#FFB27D;" d="M1552.466,881.045c-12.433,2.139-30.554-0.872-43.66-9.956
					c6.344-14.214,9.071-25.49,10.119-32.803c0.061-0.389,0.107-0.766,0.154-1.13c0.485-3.792,0.488-6.372,0.33-7.561l31.997,0.746
					c0,0,8.655,4.203,8.591,6.968c-0.034,1.479-0.055,2.893-0.061,4.244c-0.021,3.681,0.051,6.897,0.179,9.66
					c0.398,8.993,1.67,19.883,1.67,19.883S1565.021,878.886,1552.466,881.045z"/>
				<path style="fill:#E2915A;" d="M1560.115,851.213c-24.351,4.12-38.114-9.456-41.19-12.927c-0.437-0.496-0.66-0.79-0.66-0.79
					c0.259-0.122,0.53-0.231,0.814-0.34c9.108-3.443,29.874-1.607,41.212,2.852C1560.27,843.689,1559.987,848.451,1560.115,851.213z
					"/>
				<path style="fill:#FFB27D;" d="M1509.963,827.31c8.244,22.241,37.764,16.359,50.328,12.698c3.536-1.025,5.726-1.877,5.726-1.877
					c3.878-1.789,5.039-8.585,4.643-17.157c-0.779-16.964-7.637-40.877-11.519-46.625c-5.843-8.649-15.548-17.418-44.142-4.935
					C1486.401,781.903,1499.393,798.815,1509.963,827.31z"/>
				<path style="fill:#233862;" d="M1556.441,754.639c-10.135-7.47-19.172-9.103-25.754-9.191
					c-19.479-0.259-34.596,9.59-34.679,9.646c-22.535,14.94-25.677,34.702-7.72,61.533c18.989,28.372,30.566,22.131,30.566,22.131
					s-2.217-0.711-3.624-10.333c-0.08-0.547-0.137-1.006-0.18-1.402c-0.214-1.984-1.246-3.833-2.94-4.89
					c-3.497-2.18-6.388-10.102-4.244-12.817c2.585-3.276,7.463-0.684,9.28,1.644c1.513,1.605,3.772,1.868,5.557,0.256
					c6.761-6.112,0.17-14.857,6.408-21.983s43.646-3.92,46.096-24.957C1575.208,764.276,1565.853,761.575,1556.441,754.639z"/>
				<path style="fill:#AEC3FF;" d="M1561.785,871.097c0,0,39.297,81.08,44.421,143.686c5.124,62.606,0,108.509,0,108.509
					s25.552-61.099,27.979-133.492c1.078-32.177-4.082-90.433-15.012-100.741C1613.838,884.026,1597.835,879.226,1561.785,871.097z"
					/>
				<path style="fill:#AEC3FF;" d="M1518.022,978.318c-0.126,9.26-0.485,18.938-1.145,28.954
					c-2.309,35.174-8.308,74.533-20.831,114.773h-128.604c0,0,15.936-38.74,35.185-80.843c3.372-7.375,6.846-14.853,10.35-22.241
					c14.228-29.978,29.012-58.522,39.824-72.938c28.694-38.259,56.025-74.926,56.025-74.926S1518.88,914.982,1518.022,978.318z"/>
				<path style="fill:#9DB0F4;" d="M1482.725,1036.399c0,0-26.412,10.474-80.098,4.803c3.372-7.375,6.846-14.853,10.35-22.241
					L1482.725,1036.399z"/>
				<path style="fill:#9DB0F4;" d="M1518.022,978.318c-0.126,9.26-0.485,18.938-1.145,28.954
					c-17.305-0.936-79.196-4.346-78.902-5.227c0.342-1.025,5.726-24.595,5.726-24.595s52.028,12.639,74.223,0L1518.022,978.318z"/>
				<path style="fill:#FFB27D;" d="M1493.793,1006.144c0,0,18.446-10.951,26.986-10.429c8.54,0.522,22.204,3.255,24.253,10.429
					c2.05,7.174-3.074,3.673-14.518,5.903c-6.749,1.315-10.881,11.006-19.642,11.859c-3.417,0.333-17.08-2.392-17.08-2.392V1006.144
					z"/>
				<path style="fill:#AEC3FF;" d="M1508.825,871.097c0,0-47.213,5.582-59.511,17.196c-20.796,19.641-75.493,93.915-70.088,126.489
					c3.586,21.616,103.499,21.616,103.499,21.616s12.335-7.995,16.875-15.224c9.225-14.688,6.035-25.459,6.035-25.459
					l-61.796-20.999c0,0,30.142-29.223,53.37-30.744C1514.2,942.861,1508.825,871.097,1508.825,871.097z"/>
			</g>
		</g>
		<g>
			<g>
				<rect x="1692.028" y="854.84" style="fill:#AEC3FF;" width="248.644" height="4.99"/>
				<rect x="1692.028" y="878.125" style="fill:#AEC3FF;" width="248.644" height="4.99"/>
				<rect x="1692.028" y="901.687" style="fill:#AEC3FF;" width="248.644" height="4.99"/>
			</g>
			<rect x="1692.028" y="718.131" style="fill:#FFFFFF;" width="76.078" height="76.078"/>
			<rect x="1844.247" y="777.565" style="fill:#AEC3FF;" width="96.425" height="8.777"/>
			<rect x="1823.246" y="798.117" style="fill:#AEC3FF;" width="117.426" height="8.777"/>
		</g>
		<g>
			<g>
				<g>
					<defs>
						
							<rect id="SVGID_00000137816941796562218760000015521962994641180589_" x="1441.101" y="1296.676" width="198.425" height="198.426"/>
					</defs>
					<use xlink:href="#SVGID_00000137816941796562218760000015521962994641180589_"  style="overflow:visible;fill:#FFFFFF;"/>
					<clipPath id="SVGID_00000071542911343161732200000010508284955781637799_">
						<use xlink:href="#SVGID_00000137816941796562218760000015521962994641180589_"  style="overflow:visible;"/>
					</clipPath>
					<g style="clip-path:url(#SVGID_00000071542911343161732200000010508284955781637799_);">
						<path style="fill:#AEC3FF;" d="M1481.093,1441.325l25.132-6.521l24.41-8.651c0,0,14.165,6.771,24.263,8.651
							c10.991,2.048,47.683,63.34,47.683,65.902c0,2.562,1.025,186.291,1.025,186.291l-168.231-1.245L1481.093,1441.325z"/>
						<path style="fill:#FFB27D;" d="M1549.865,1444.753c-12.434,2.14-30.554-0.872-43.66-9.956
							c6.344-14.214,9.071-25.489,10.119-32.803c0.061-0.39,0.107-0.766,0.154-1.13c0.485-3.792,0.488-6.372,0.33-7.561
							l31.997,0.745c0,0,8.654,4.204,8.59,6.969c-0.034,1.479-0.054,2.893-0.06,4.244c-0.022,3.681,0.05,6.896,0.178,9.659
							c0.398,8.992,1.671,19.884,1.671,19.884S1562.42,1442.594,1549.865,1444.753z"/>
						<path style="fill:#E2915A;" d="M1557.514,1414.921c-24.351,4.119-38.114-9.455-41.189-12.927
							c-0.437-0.497-0.66-0.79-0.66-0.79c0.259-0.122,0.53-0.231,0.814-0.34c9.108-3.444,29.873-1.606,41.211,2.852
							C1557.668,1407.396,1557.386,1412.158,1557.514,1414.921z"/>
						<path style="fill:#FFB27D;" d="M1507.362,1391.018c8.243,22.24,37.764,16.358,50.327,12.698
							c3.537-1.025,5.726-1.878,5.726-1.878c3.879-1.789,5.04-8.586,4.643-17.157c-0.778-16.963-7.637-40.876-11.518-46.624
							c-5.844-8.649-15.548-17.418-44.142-4.936C1483.8,1345.61,1496.792,1362.522,1507.362,1391.018z"/>
						<path style="fill:#A9453D;" d="M1553.841,1318.346c-10.135-7.47-19.173-9.104-25.754-9.19
							c-19.479-0.259-34.596,9.591-34.679,9.646c-22.535,14.941-25.677,34.702-7.72,61.533
							c18.989,28.373,30.567,22.132,30.567,22.132s-2.218-0.711-3.624-10.334c-0.08-0.547-0.137-1.005-0.18-1.401
							c-0.214-1.984-1.246-3.833-2.94-4.89c-3.497-2.18-6.388-10.102-4.245-12.816c2.586-3.276,7.463-0.684,9.28,1.645
							c1.514,1.604,3.773,1.867,5.557,0.255c6.761-6.111,0.171-14.856,6.408-21.982c6.238-7.127,43.646-3.921,46.097-24.957
							C1572.607,1327.984,1563.252,1325.282,1553.841,1318.346z"/>
						<path style="fill:#AEC3FF;" d="M1559.185,1434.805c0,0,39.297,81.079,44.421,143.686c5.123,62.605,0,108.508,0,108.508
							s25.551-61.098,27.978-133.492c1.079-32.176-4.081-90.432-15.012-100.74
							C1611.236,1447.733,1595.234,1442.934,1559.185,1434.805z"/>
						<path style="fill:#AEC3FF;" d="M1506.226,1434.805l-0.001,0.002L1506.226,1434.805c-0.001,0-47.215,5.582-59.513,17.196
							c-20.796,19.64-75.493,93.915-70.088,126.489c1.199,7.225,29.202,29.291,44.596,32.493
							c3.902,30.655-5.759,76.015-5.759,76.015l77.984-1.246c12.522-40.24,18.521-79.599,20.831-114.772
							c0.659-10.016,1.018-19.693,1.144-28.954C1516.279,1478.689,1506.226,1434.805,1506.226,1434.805z"/>
						<path style="fill:#F99746;" d="M1512.381,1426.44c0,0,19.758,16.152,31.463,18.971c0,0-10.868,5.749-45.008-9.581
							C1498.836,1435.83,1503.767,1427.513,1512.381,1426.44z"/>
						<path style="fill:#F99746;" d="M1558.185,1424.777c0,0,2.241,6.731,5.703,11.095c0,0-3.044,10.762-20.044,9.539
							C1543.844,1445.411,1558.854,1434.635,1558.185,1424.777z"/>
						<path style="fill:#F99746;" d="M1530.424,1439.104l23.441-2.857c0,0-0.731,13.749-7.792,19.229
							C1543.504,1457.471,1530.125,1441.545,1530.424,1439.104z"/>
						<path style="fill:#F99746;" d="M1540.871,1447.487c0,0,5.388,98.098,2.844,141.479c-1.406,23.973-4.888,58.524-4.33,61.869
							c0.558,3.344,16.478,18.951,16.478,18.951s15.664-14.585,16.036-20.902c0.371-6.316,4.831-98.098-22.964-202.417
							C1547.982,1442.896,1540.871,1447.487,1540.871,1447.487z"/>
					</g>
					<path style="clip-path:url(#SVGID_00000071542911343161732200000010508284955781637799_);fill:#C5D7FF;" d="M1510.287,1424.777
						c0,0-6.017,0.414-16.607,12.677c0,0,17.093,14.678,32.7,18.394c0,0-0.644-11.379,4.044-16.744L1510.287,1424.777z"/>
					<path style="clip-path:url(#SVGID_00000071542911343161732200000010508284955781637799_);fill:#C5D7FF;" d="M1558.185,1424.777
						l-8.21,12.166c0,0,8.361,6.271,11.147,13.795c0,0,5.741-9.366,5.24-14.298
						C1566.362,1436.44,1562.492,1426.268,1558.185,1424.777z"/>
				</g>
			</g>
			<g>
				<g>
					<rect x="1692.028" y="1438.326" style="fill:#AEC3FF;" width="262.875" height="4.989"/>
					<rect x="1692.028" y="1461.61" style="fill:#AEC3FF;" width="262.875" height="4.989"/>
					<rect x="1692.028" y="1485.172" style="fill:#AEC3FF;" width="262.875" height="4.99"/>
				</g>
				<rect x="1692.028" y="1301.616" style="fill:#FFFFFF;" width="76.078" height="76.078"/>
				<rect x="1852.959" y="1361.05" style="fill:#AEC3FF;" width="101.944" height="8.777"/>
				<rect x="1830.756" y="1381.603" style="fill:#AEC3FF;" width="124.147" height="8.777"/>
			</g>
		</g>
		<g>
			<g>
				<rect x="1441.101" y="1010.104" style="fill:#FFFFFF;" width="198.425" height="198.425"/>
				<g>
					<g>
						<g>
							<path style="fill:#233862;" d="M1560.926,1027.06c-12.162-3.378-28.95-0.558-31.727-0.334
								c-33.241,2.642-42.527,53.798-40.599,68.267c3.567,26.665-9.442,33.666-25.405,54.311
								c-17.412,22.507-19.519,43.353-13.867,59.227h84.397c18.104-15.918,42.829-37.745,58.346-51.256
								c2.163-0.803,4.114-1.816,5.864-3.032C1631.868,1130.854,1590.399,1035.23,1560.926,1027.06z"/>
							<path style="fill:#FFB27D;" d="M1563.555,1148.547c0.152,0.057-13.805,8.462-24.847,6.179
								c-10.386-2.139-20.94-16.182-20.802-16.221c4.27-1.132,8.188-5.926,6.483-31.452l1.979,0.262l33.277,4.431
								c0,0-0.095,10.391,0.499,20.136C1560.64,1140.063,1561.626,1147.791,1563.555,1148.547z"/>
							<path style="fill:#ED975D;" d="M1559.646,1111.745c0,0-0.095,10.391,0.499,20.136c-18.424,0.644-29.205-15.52-33.776-24.566
								L1559.646,1111.745z"/>
							<path style="fill:#FFB27D;" d="M1566.37,1120.584c0,0-43.468,3.467-45.211-23.636c-1.742-27.103-8.526-44.909,19.153-48.269
								c27.68-3.36,33.742,6.635,36.523,15.54C1579.618,1073.125,1577.633,1118.983,1566.37,1120.584z"/>
							<path style="fill:#233862;" d="M1572.185,1050.163c0,0-22,29.152-39.987,35.009c-17.986,5.857-26.228,1.46-26.228,1.46
								s8.895-11.347,12.276-27.285c0.997-4.697,4.424-8.515,9.013-9.93C1540.147,1045.442,1564.934,1039.54,1572.185,1050.163z"/>
							<path style="fill:#233862;" d="M1554.83,1051.732c0,0,10.938,6.79,15.189,12.661c4.104,5.666,8.167,20.461,7.264,26.882
								c0,0,8.167-30.455-2.693-42.045C1563.074,1036.941,1554.83,1051.732,1554.83,1051.732z"/>
							<path style="fill:#AEC3FF;" d="M1602.885,1161.811c-0.77-2.82-2.542-5.34-4.949-7.569
								c-11.415-10.646-37.065-14.993-37.065-14.993v0.011c0,0-0.012,0.101-0.056,0.279v0.022c-0.368,1.371-2.319,6.866-10.97,6.866
								c-5.841,0-14.736-2.519-28.259-10.501c-0.066-0.045-0.134-0.078-0.2-0.122c-0.012-0.012-0.022,0-0.022-0.012v-0.011
								c0,0-35.539,2.185-47.834,19.341c-6.678,9.309-15.874,30.31-23.544,53.407h165.641
								C1609.952,1187.729,1604.668,1168.343,1602.885,1161.811z"/>
						</g>
					</g>
				</g>
			</g>
			<g>
				<g>
					<rect x="1692.028" y="1149.751" style="fill:#AEC3FF;" width="258.011" height="4.989"/>
					<rect x="1692.028" y="1173.035" style="fill:#AEC3FF;" width="258.011" height="4.99"/>
					<rect x="1692.028" y="1196.598" style="fill:#AEC3FF;" width="258.011" height="4.989"/>
				</g>
				<rect x="1692.028" y="1013.041" style="fill:#FFFFFF;" width="76.078" height="76.078"/>
				<rect x="1833.11" y="1072.476" style="fill:#AEC3FF;" width="107.562" height="8.776"/>
				<rect x="1809.684" y="1093.027" style="fill:#AEC3FF;" width="130.988" height="8.777"/>
			</g>
			<polygon style="fill:#233862;" points="1706.412,1044.529 1730.067,1077.139 1758.247,1025.021 1725.548,1054.748 			"/>
		</g>
		<g>
			<rect x="1575.869" y="1598.854" style="fill:#AEC3FF;" width="261.085" height="4.38"/>
			<rect x="1575.869" y="1619.779" style="fill:#AEC3FF;" width="261.085" height="4.38"/>
			<rect x="1575.869" y="1645.084" style="fill:#AEC3FF;" width="261.085" height="4.38"/>
		</g>
		<g>
			<path style="fill:#AEC3FF;" d="M1467.24,1608.197c3.513-4.945,7.188-13.624,4.405-19.741c-2.553-5.612-7.597-3.015-11.029,0.237
				c-5.115,4.849-8.022,11.514-10.207,18.09c-2.666,8.023-4.835,16.383-5.701,24.809c-0.697,6.777-1.156,17.229,3.208,23.015
				c3.707,4.914,9.669,0.88,13.78-1.425c12.978-7.277,23.794-18.908,26.796-33.803c0.386-1.917-1.984-3.675-3.494-2.034
				c-2.981,3.24-4.976,7.196-5.102,11.673c-0.069,2.455,0.157,6.355,3.118,7.063c3.48,0.832,6.187-4.001,7.687-6.309
				c3.015-4.639,4.854-9.838,5.76-15.274c-1.344-0.37-2.688-0.74-4.031-1.111c-0.579,3.954,0.13,11.002,5.998,9.781
				c5.551-1.154,6.016-10.697,6.191-14.979c0.095-2.32-3.644-2.89-4.106-0.556c-0.766,3.864-0.731,7.655,0.491,11.435
				c0.614,1.902,1.55,3.581,2.454,5.354c0.878,1.419,1.629,2.904,2.253,4.456c1.308,3.2,0.181,4.561-3.381,4.082
				c-0.416,1.023-0.832,2.047-1.249,3.07c9.85-3.877,20.553-9.199,21.097-21.151c0.122-2.689-4.058-2.684-4.181,0
				c-0.445,9.81-10.142,14.017-18.027,17.12c-1.298,0.512-1.908,1.771-1.25,3.07c2.291,4.522,8.585,4.061,10.713-0.425
				c1.411-2.976,0.738-6.221-0.585-9.088c-2.662-5.767-5.631-10.115-4.305-16.812c-1.368-0.186-2.736-0.37-4.105-0.556
				c-0.092,2.257-0.298,4.478-0.924,6.666c-0.177,0.788-0.434,1.55-0.77,2.286c-0.661,2.605-1.421,1.726-2.283-2.643
				c0.383-2.614-3.586-3.782-4.031-1.111c-0.85,5.101-2.494,9.924-5.339,14.276c-1.295,1.98-3.204,5.943-3.014,1.354
				c0.141-3.423,1.61-6.252,3.877-8.717c-1.165-0.678-2.329-1.355-3.494-2.033c-1.969,9.77-7.444,18.041-14.994,24.454
				c-3.599,3.058-8.273,6.861-12.835,8.417c-1.761,0.6-4.617,0.753-6.175-0.763c-0.615-0.598-0.842-2.944-1.02-3.783
				c-0.706-3.313-0.933-6.714-0.858-10.096c0.233-10.663,3.209-21.845,6.982-31.789c1.811-4.771,4.258-9.519,8.011-13.059
				c4.759-4.488,4.778,2.646,4.085,5.897c-0.67,3.147-2.18,5.94-4.026,8.541C1462.07,1608.285,1465.693,1610.375,1467.24,1608.197
				L1467.24,1608.197z"/>
		</g>
	</g>
	<path style="fill:#2E3552;" d="M2885.951,1745.441H202.156c-1.637,0-2.977-1.34-2.977-2.977v-0.854c0-1.638,1.34-2.978,2.977-2.978
		h2683.795c1.637,0,2.977,1.34,2.977,2.978v0.854C2888.928,1744.102,2887.588,1745.441,2885.951,1745.441z"/>
	<g>
		<g>
			<path style="fill:#FFB27D;" d="M1939.029,1727.783c-0.752,10.238-15.197,10.349-31.591,8.446
				c-16.393-1.901-12.035,2.247-34.987,2.566c-22.953,0.319-30.864-7.267-31.976-10.547c-0.99-2.909,10.064-5.359,21.892-8.239
				c1.487-0.356,2.98-0.732,4.473-1.109c13.335-3.39,22.165-13.37,33.574-22.085c10.808-8.255,24.744-38.132,24.744-38.132
				l31.355-1.415c0,0-13.204,26.779-18.164,38.325c-2.916,6.791-1.676,15.135-0.407,21.539
				C1938.621,1720.615,1939.299,1724.177,1939.029,1727.783z"/>
			<path style="fill:#233862;" d="M1907.438,1736.229c-16.393-1.901-12.035,2.247-34.987,2.566
				c-22.953,0.319-30.864-7.267-31.976-10.547c-0.99-2.909,10.064-5.359,21.892-8.239l0.141,0.217c0,0,14.778,7.933,33.681,6.032
				c15.406-1.543,31.126-7.974,41.754-9.126c0.679,3.482,1.356,7.044,1.087,10.65
				C1938.277,1738.021,1923.832,1738.132,1907.438,1736.229z"/>
		</g>
		<g>
			<path style="fill:#FFB27D;" d="M2155.581,1729.906c-0.741,10.239-15.188,10.364-31.582,8.479
				c-16.395-1.885-12.032,2.26-34.985,2.602c-22.951,0.343-30.871-7.235-31.985-10.514c-0.993-2.909,10.06-5.37,21.883-8.262
				c1.487-0.358,2.979-0.736,4.472-1.113c13.332-3.404,22.151-13.394,33.552-22.119c10.799-8.267,0.01-57.203,0.01-57.203
				l34.487-3.356c0,0-1.653,41.204-1.632,59.937c0.009,7.391,3.409,14.499,4.685,20.901
				C2155.166,1722.739,2155.847,1726.3,2155.581,1729.906z"/>
			<path style="fill:#233862;" d="M2123.999,1738.385c-16.395-1.885-12.032,2.26-34.985,2.602
				c-22.951,0.343-30.871-7.235-31.985-10.514c-0.993-2.909,10.06-5.37,21.883-8.262l0.141,0.217c0,0,14.787,7.918,33.687,5.998
				c15.405-1.56,31.118-8.006,41.746-9.169c0.682,3.482,1.362,7.043,1.097,10.649
				C2154.84,1740.146,2140.394,1740.271,2123.999,1738.385z"/>
		</g>
		<path style="fill:#A9453D;" d="M2054.934,884.116c-5.936-24.418,2.67-35.79,10.434-41.845c3.684-8.987,7.887-15.465,12.185-17.908
			c7.837-4.455,17.23-4.941,23.8-4.553c-1.692-1.746-5.02-2.382-5.02-2.382c4.074-0.606,13.168,3.435,13.168,3.435
			c56.668-21.836,65.575,61.604,64.384,80.99c-1.182,19.383-1.024,42.214,28.46,57.487c56.253,29.143-18.696,138.963-18.696,138.963
			c1.43-15.666-70.85-98.334-108.56-123.092c-9.18-13.515-12.442-37.389-12.687-39.268c1.584,18.93,4.823,29.548,7.717,35.527
			C2052.932,955.651,2050.385,917.667,2054.934,884.116z"/>
		<path style="fill:#FFB27D;" d="M2077.32,976.443c-0.188,0.085,18.208,9.637,32.045,5.852
			c13.016-3.549,21.521-20.426,21.341-20.463c-5.512-1.095-7.101-8.669-6.984-41.219l-2.491,0.491l-41.899,8.296
			c0,0,0.953,13.186,0.981,25.608C2080.341,965.437,2079.708,975.329,2077.32,976.443z"/>
		<path style="fill:#ED975D;" d="M2079.331,929.399c0,0,0.953,13.186,0.981,25.608c23.446-0.661,35.839-22.049,40.918-33.904
			L2079.331,929.399z"/>
		<path style="fill:#2A4E96;" d="M1908.857,1675.285c-2.055,6.439,2.564,13.076,9.316,13.392l16.368,0.765l17.319,0.531
			c4.332,0.132,8.471-1.757,11.21-5.116c13.824-16.959,56.377-73.483,82.188-155.61c0.727-2.304,1.491-4.635,2.303-6.994
			c17.047-49.705,52.386-112.096,71.009-168.568c2.964-8.995,5.625-17.462,8.014-25.476c0.765-2.567,1.51-5.088,2.218-7.57
			c13.724-47.685,17.697-78.993,21.36-112.444l-134.476,1.076C2015.688,1209.27,1987.378,1429.312,1908.857,1675.285z"/>
		<path style="fill:#FFFFFF;" d="M2034.514,1131.998c0.339,63.992-9.388,91.446-9.388,91.446s57.577,29.253,126.009,7.72
			c0.806-0.254,48.959-13.889,48.959-13.889c-1.146-2.591-10.66-45.406-11.775-47.783c-14.448-31.025-18.386-44.053-20.1-53.591
			c-3.179-17.808-3.248-36.233-1.664-53.612c4.175-46.003,16.594-84.193,16.594-84.193c-18.646-4.242-36.106-11.696-55.514-18.974
			c-4.464,5.559-18.11,11.375-29.947,11.108c-13.631-0.3-18.052-6.135-17.344-12.506c-14.526,8.083-26.117,15.718-26.117,15.718
			c-12.346,21.445-37.384,42.271-39.197,75.166C2014.581,1056.697,2034.504,1130.205,2034.514,1131.998z"/>
		<path style="fill:#5F9AA8;" d="M2150.164,1139.131c5.879,8.32,17.148,58.888,45.187,65.245
			c-14.447-36.04-25.418-51.843-27.132-62.923c-3.179-20.686-3.248-42.089-1.664-62.275c-9.386-16.451-16.391-27.73-16.391-27.73
			c-0.737-2.66-14.916-46.502-19.46-7.313C2126.17,1083.332,2143.598,1129.825,2150.164,1139.131z"/>
		<path style="fill:#FFB27D;" d="M2071.501,941.162c0,0,55.474,0.915,55.511-33.64c0.038-34.555,7.224-57.708-28.192-59.754
			c-35.417-2.045-42.313,11.133-45.131,22.663C2050.87,881.962,2057.072,940.033,2071.501,941.162z"/>
		<path style="fill:#A9453D;" d="M2073.554,846.922c0,0,15.188,40.539,38.498,46.533c23.31,5.994,33.42-0.252,33.42-0.252
			s-17.879-14.203-21.59-38.997C2123.882,854.208,2085.011,827.627,2073.554,846.922z"/>
		<path style="fill:#A9453D;" d="M2077.318,850.213c0,0-11.343,9.051-14.108,17.85c-2.766,8.799-4.009,26.913-9.289,26.297
			c0,0-11.442-27.555,1.417-43.142C2068.975,834.69,2077.318,850.213,2077.318,850.213z"/>
		<polygon style="fill:#FFB27D;" points="1984.216,1176.414 1958.015,1256.295 1972.959,1262.287 2016.28,1191.713 		"/>
		<path style="fill:#F99746;" d="M2054.856,968.738c0,0-30.894,12.26-39.835,31.373c-8.941,19.113-22.48,147.318-27.872,160.484
			c-5.392,13.165-9.445,23.59-9.445,23.59s15.576,13.124,31.242,14.09C2024.611,1199.241,2054.856,968.738,2054.856,968.738z"/>
		<path style="fill:#F99746;" d="M2080.344,957.724c0,0-32.095,79.288-33.039,95.334c-0.943,16.045-3.775,262.399-3.775,262.399
			s1.888,11.326-19.821,6.606c-21.71-4.719-27.373-9.438-27.373-9.438s20.766-151.966,15.103-204.823s43.419-139.065,43.419-139.065
			L2080.344,957.724z"/>
		<path style="fill:#1E3D70;" d="M1934.542,1689.441l18.804,0.576c3.36,0.104,6.58-1.344,8.721-3.937
			c12.64-15.307,56.721-72.606,83.193-156.835c0.727-2.304,1.491-4.635,2.303-6.994c17.047-49.705,52.386-112.096,71.009-168.568
			c2.964-8.995,5.625-17.462,8.014-25.476c0.765-2.567,1.51-5.088,2.218-7.57L2109,1305.611c0,0-59.455,96.276-77.861,186.88
			C2015.149,1571.192,1951.116,1665.892,1934.542,1689.441z"/>
		<path style="fill:#2A4E96;" d="M2106.933,1500.93c-0.321,41.682,1.655,134.588,6.728,180.002c0.465,4.157,3.979,7.293,8.162,7.293
			h14.031c5.914,0,10.338-0.043,13.277-0.086c2.543-0.037,4.715-1.863,5.206-4.359c13.952-71.003,23.939-129.992,31.25-180.962
			c6.116-42.664,11.553-79.239,15.734-110.728c4.21-31.686,7.136-58.219,8.184-80.636c0.16-3.53,0.283-6.966,0.349-10.298
			c0.066-3.351,0.086-6.607,0.057-9.77l-116.191-11.326C2095.182,1357.261,2107.121,1475.322,2106.933,1500.93z"/>
		<path style="fill:#1E3D70;" d="M2135.854,1688.225c5.313,0,9.423-0.035,12.335-0.073c3.091-0.04,5.732-2.254,6.328-5.286
			c13.858-70.596,23.791-129.298,31.07-180.048c6.116-42.664,11.553-79.239,15.734-110.728c4.21-31.686,7.136-58.219,8.184-80.636
			l-42.636,25.079c0,0,27.213,9.6,16.83,82.278S2150.305,1677.936,2135.854,1688.225z"/>
		<path style="fill:#F99746;" d="M2130.367,1310.738c0,0,8.183,29.572,36.499,25.796c28.317-3.775,68.583-20.765,68.583-20.765
			s-12.101-38.237-27.146-88.471c-18.217-60.814-40.766-139.213-51.395-188.663c-2.982-13.856-5.021-25.429-5.776-33.716
			l-23.493-45.58c0,0-35.027,78.616-36.915,98.438S2130.367,1310.738,2130.367,1310.738z"/>
		<path style="fill:#FFB27D;" d="M2158.641,1054.823l-31.006-95.483c0.084,0.039,39.16,11.628,58.817,21.558
			c0,0,12.286,15.84,19.889,52.384c0,0,8.031,87.736-9.902,119.828c0,0-56.633,11.327-147.246-19.821v-20.766
			c0,0,99.108,5.191,119.401,7.552L2158.641,1054.823z"/>
		<path style="fill:#ED7D2B;" d="M2131.622,1099.309c1.265,32.092,8.815,94.388,76.144,127.735c0.179,0.085,0.358,0.18,0.537,0.255
			c-18.217-60.814-40.766-139.213-51.395-188.663C2144.544,1057.116,2130.934,1081.639,2131.622,1099.309z"/>
		<path style="fill:#F99746;" d="M2127.635,959.34c0,0,57.478,4.049,71.32,34.883c13.844,30.834,18.249,133.402,0.63,163.606
			c0,0-24.258,6.909-67.161-1.114c-0.525-0.099-1.054-0.199-1.585-0.302c0,0-13.687-33.508-1.416-40.115
			c0,0,36.183,1.888,32.406-10.067C2158.054,1094.274,2127.635,959.34,2127.635,959.34z"/>
		<g>
			<path style="fill:#A9453D;" d="M1983.529,1125.353l1.691,5.441l94.313-29.339c0,0,1.258-1.434,0.638-3.336
				c-0.686-2.101-2.33-2.105-2.33-2.105L1983.529,1125.353z"/>
			<polygon style="fill:#A9453D;" points="1976.708,1130.495 1983.529,1125.353 1985.221,1130.794 			"/>
		</g>
		<path style="fill:#FFB27D;" d="M1961.737,1254.111c0,0-23.925,13.221-27.073,23.295c-3.147,10.073-0.985,31.165,2.813,30.851
			c3.799-0.315,9.465-22.666,12.613-24.239c3.147-1.574,7.555-6.293,7.555-2.832s-3.147,9.757-1.574,10.701
			c1.574,0.944,6.611-8.811,10.074-10.701s4.918-17.457,8.282-21.637C1977.792,1255.37,1961.737,1254.111,1961.737,1254.111z"/>
		<path style="fill:#FFB27D;" d="M2049.192,1112.522c0,0-21.396-13.177-30.372-11.149c-8.976,2.026-31.851,18.595-20.848,22.182
			c11.003,3.588,19.913-0.176,24.145,2.43s7.355,7.369,27.075,7.304C2068.913,1133.223,2049.192,1112.522,2049.192,1112.522z"/>
	</g>
	<g>
		<g>
			<g>
				<rect x="889.278" y="1247.822" style="fill:#C3D2FF;" width="379.371" height="452.355"/>
				<g>
					
						<rect x="1078.69" y="1485.764" transform="matrix(-0.9009 0.434 -0.434 -0.9009 2807.7314 2444.8359)" style="fill:#B0C3F4;" width="92.1" height="114.423"/>
					<polygon style="fill:#B0C3F4;" points="1268.648,1483.66 1268.648,1615.787 1252.215,1606.295 1233.108,1595.268 
						1217.719,1586.38 1212.938,1583.625 1203.098,1577.942 1209.292,1567.212 1243.819,1507.416 1260.314,1478.849 					"/>
					
						<rect x="1101.737" y="1534.627" transform="matrix(-0.3779 0.9258 -0.9258 -0.3779 3055.3467 1130.7739)" style="fill:#B0C3F4;" width="92.099" height="114.423"/>
					
						<rect x="996.195" y="1542.634" transform="matrix(-0.8112 0.5848 -0.5848 -0.8112 2823.2908 2288.0732)" style="fill:#B0C3F4;" width="92.1" height="114.423"/>
					<polygon style="fill:#B0C3F4;" points="1268.648,1545.843 1268.648,1663.553 1250.556,1677.959 1200.241,1614.742 
						1198.152,1612.121 1193.514,1606.295 1193.196,1605.896 1208.965,1593.353 1208.975,1593.343 1217.719,1586.38 
						1264.082,1549.479 					"/>
					<polygon style="fill:#B0C3F4;" points="1268.648,1558.959 1268.648,1578.147 1233.108,1595.268 1210.234,1606.295 
						1202.084,1610.217 1198.152,1612.121 1193.186,1614.507 1189.234,1606.295 1177.151,1581.229 1160.871,1547.44 
						1143.516,1511.419 1157.421,1504.723 1226.484,1471.445 1243.819,1507.416 1264.082,1549.479 					"/>
					<rect x="971.436" y="1606.295" style="fill:#B0C3F4;" width="297.212" height="93.34"/>
				</g>
				
					<rect x="796.45" y="1247.826" transform="matrix(-1 -1.224647e-16 1.224647e-16 -1 1961.5469 2948.0078)" style="fill:#D7E1FF;" width="368.647" height="452.355"/>
				<g>
					
						<rect x="903.708" y="1485.764" transform="matrix(-0.9009 0.434 -0.434 -0.9009 2475.1089 2520.7869)" style="fill:#E3EBFF;" width="92.099" height="114.423"/>
					
						<rect x="1034.358" y="1502.516" transform="matrix(-0.7778 -0.6285 0.6285 -0.7778 940.522 3451.9377)" style="fill:#E3EBFF;" width="92.1" height="114.423"/>
					
						<rect x="926.754" y="1534.627" transform="matrix(-0.3779 0.9258 -0.9258 -0.3779 2814.2351 1292.7904)" style="fill:#E9EFFF;" width="92.1" height="114.423"/>
					
						<rect x="821.213" y="1542.634" transform="matrix(-0.8112 0.5848 -0.5848 -0.8112 2506.3701 2390.3999)" style="fill:#E9EFFF;" width="92.1" height="114.423"/>
					
						<rect x="1045.606" y="1549.086" transform="matrix(-0.6228 -0.7824 0.7824 -0.6228 514.7892 3460.7861)" style="fill:#E9EFFF;" width="92.1" height="114.423"/>
					
						<rect x="988.803" y="1485.764" transform="matrix(-0.9009 0.434 -0.434 -0.9009 2636.865 2483.8516)" style="fill:#E9EFFF;" width="92.1" height="114.423"/>
					
						<rect x="796.45" y="1606.297" transform="matrix(-1 -1.224647e-16 1.224647e-16 -1 1961.5469 3305.9287)" style="fill:#E9EFFF;" width="368.647" height="93.335"/>
				</g>
				<polygon style="fill:#E3EBFF;" points="1165.106,1501.02 1143.516,1511.419 1165.097,1556.21 				"/>
			</g>
			<rect x="796.45" y="1247.826" style="fill:#F99746;" width="368.647" height="78.514"/>
			<rect x="1165.097" y="1247.826" style="fill:#ED7D2B;" width="104.877" height="78.514"/>
			<g>
				<path style="fill:#FFFFFF;" d="M900.042,1270.039h8.279l8.912,24.008l8.913-24.008h8.083l-13.782,34.333h-6.623
					L900.042,1270.039z"/>
				<path style="fill:#FFFFFF;" d="M935.791,1287.084c0-9.691,7.645-17.63,18.165-17.63c10.519,0,18.067,7.841,18.067,17.63
					c0,9.69-7.646,17.628-18.165,17.628C943.339,1304.712,935.791,1296.872,935.791,1287.084z M964.182,1287.084
					c0-5.844-4.285-10.715-10.324-10.715c-6.039,0-10.227,4.773-10.227,10.715c0,5.843,4.286,10.714,10.324,10.714
					C959.994,1297.798,964.182,1293.025,964.182,1287.084z"/>
				<path style="fill:#FFFFFF;" d="M985.176,1276.954h-10.373v-6.915h28.245v6.915h-10.372v27.174h-7.5V1276.954z"/>
				<path style="fill:#FFFFFF;" d="M1008.798,1270.039h25.713v6.671h-18.262v6.916h16.071v6.671h-16.071v7.16h18.506v6.671h-25.957
					V1270.039z"/>
			</g>
		</g>
		<rect x="1146.406" y="1699.632" style="fill:#2B478B;" width="18.7" height="39.158"/>
		<rect x="1249.993" y="1699.632" style="fill:#2B478B;" width="18.7" height="39.158"/>
		<rect x="796.473" y="1699.632" style="fill:#2B478B;" width="18.7" height="39.158"/>
	</g>
	<g>
		
			<rect x="932.617" y="1033.137" transform="matrix(-0.9966 0.0821 -0.0821 -0.9966 2083.6584 2151.5569)" style="fill:#FFFFFF;" width="129.911" height="171.004"/>
		
			<rect x="938.62" y="1038.772" transform="matrix(-0.9966 0.0821 -0.0821 -0.9966 2083.7717 2151.1729)" style="fill:#E7EDFF;" width="118.034" height="159.355"/>
		<g>
			
				<rect x="948.085" y="1115.574" transform="matrix(-0.9966 0.0821 -0.0821 -0.9966 2046.0774 2147.9734)" style="fill:#AEC3FF;" width="61.53" height="1.009"/>
			
				<rect x="948.472" y="1120.27" transform="matrix(-0.9966 0.0821 -0.0821 -0.9966 2047.2357 2157.3164)" style="fill:#AEC3FF;" width="61.53" height="1.009"/>
			
				<rect x="948.864" y="1125.021" transform="matrix(-0.9966 0.0821 -0.0821 -0.9966 2048.3909 2166.7881)" style="fill:#AEC3FF;" width="61.53" height="1.01"/>
		</g>
		
			<rect x="948.248" y="1100.021" transform="matrix(-0.9966 0.0821 -0.0821 -0.9966 2016.8002 2119.3005)" style="fill:#AEC3FF;" width="33.127" height="2.219"/>
		
			<rect x="948.236" y="1105.497" transform="matrix(-0.9966 0.0821 -0.0821 -0.9966 2024.4337 2129.9343)" style="fill:#AEC3FF;" width="40.342" height="2.22"/>
		<g>
			
				<rect x="1020.972" y="1093.201" transform="matrix(-0.9966 0.0821 -0.0821 -0.9966 2157.7144 2125.9373)" style="fill:#FFFFFF;" width="28.307" height="28.307"/>
			<polygon style="fill:#233862;" points="1043.192,1103.557 1036.458,1114.654 1026.03,1098.664 1037.317,1107.345 			"/>
		</g>
		<g>
			
				<rect x="952.663" y="1171.575" transform="matrix(-0.9966 0.0821 -0.0821 -0.9966 2059.8018 2259.4263)" style="fill:#AEC3FF;" width="61.53" height="1.01"/>
			
				<rect x="953.05" y="1176.271" transform="matrix(-0.9966 0.0821 -0.0821 -0.9966 2060.959 2268.7703)" style="fill:#AEC3FF;" width="61.53" height="1.01"/>
			
				<rect x="953.441" y="1181.022" transform="matrix(-0.9966 0.0821 -0.0821 -0.9966 2062.1299 2278.2253)" style="fill:#AEC3FF;" width="61.53" height="1.009"/>
		</g>
		
			<rect x="952.826" y="1156.022" transform="matrix(-0.9966 0.0822 -0.0822 -0.9966 2030.5674 2230.7107)" style="fill:#AEC3FF;" width="33.127" height="2.219"/>
		
			<rect x="952.814" y="1161.499" transform="matrix(-0.9966 0.0821 -0.0821 -0.9966 2038.1732 2241.3721)" style="fill:#AEC3FF;" width="40.342" height="2.219"/>
		<g>
			
				<rect x="1025.55" y="1149.203" transform="matrix(-0.9966 0.0821 -0.0821 -0.9966 2171.4548 2237.3755)" style="fill:#FFFFFF;" width="28.307" height="28.307"/>
			<polygon style="fill:#233862;" points="1047.77,1159.558 1041.036,1170.655 1030.607,1154.665 1041.895,1163.346 			"/>
		</g>
		<g>
			
				<rect x="942.387" y="1070.096" transform="matrix(-0.9966 0.0821 -0.0821 -0.9966 2030.9507 2057.6548)" style="fill:#AEC3FF;" width="61.53" height="1.009"/>
			
				<rect x="942.774" y="1074.792" transform="matrix(-0.9966 0.0821 -0.0821 -0.9966 2032.1068 2066.9995)" style="fill:#AEC3FF;" width="61.53" height="1.009"/>
			
				<rect x="943.166" y="1079.543" transform="matrix(-0.9966 0.0821 -0.0821 -0.9966 2033.2952 2076.4365)" style="fill:#AEC3FF;" width="61.53" height="1.01"/>
		</g>
		
			<rect x="942.551" y="1054.543" transform="matrix(-0.9966 0.0821 -0.0821 -0.9966 2001.6891 2028.9661)" style="fill:#AEC3FF;" width="33.127" height="2.22"/>
		
			<rect x="942.539" y="1060.019" transform="matrix(-0.9966 0.0821 -0.0821 -0.9966 2009.3223 2039.5997)" style="fill:#AEC3FF;" width="40.342" height="2.219"/>
		<g>
			
				<rect x="1015.274" y="1047.723" transform="matrix(-0.9966 0.0821 -0.0821 -0.9966 2142.6028 2035.6035)" style="fill:#FFFFFF;" width="28.307" height="28.307"/>
			<polygon style="fill:#233862;" points="1037.494,1058.078 1030.761,1069.177 1020.332,1053.186 1031.619,1061.866 			"/>
		</g>
	</g>
	<g>
		<path style="fill:#FFB27D;" d="M915.551,1062.342c2.243-1.584,3.988-5.109,6.291-7.741c1.711-1.954,4.96-3.841,4.96-3.841
			s0.334,4.579,0.683,8.282c6.801-2.54,17.028-4.88,33.356-1.743c3.27,0.628,6.234,2.485,8.033,5.287
			c1.664,2.593,2.287,5.833-1.879,8.424c-8.333,5.182-5.917,2.077-17.497,9.622c-11.58,7.544-25.758,9.47-34.229,4.175
			l-11.367-1.895l-1.41-18.698C902.49,1064.214,908.969,1063.441,915.551,1062.342z"/>
		<path style="fill:#FFB27D;" d="M617.659,905.511c0,0,26.799,31.794,60.929,18.494c0,0,7.342-17.757,7.446-30.847
			c0.012-1.611,0.032-3.172,0.057-4.657c0.183-14.74,0.679-23.011,0.679-23.011s-0.009-0.003-0.034-0.007
			c-1.553-0.648-52.172-21.43-52.13-19.704C635.473,885.646,617.659,905.511,617.659,905.511z"/>
		<path style="fill:#ED975D;" d="M639.688,855.285c4.881,9.048,21.63,26.75,46.403,33.216c0.183-14.74,0.679-23.011,0.679-23.011
			s-0.009-0.003-0.034-0.007C685.334,865.106,638.235,852.618,639.688,855.285z"/>
		<path style="fill:#FFB27D;" d="M697.371,863.958c0,0-56.927,13.384-64.716-22.196c-7.789-35.579-20.382-57.814,15.635-67.863
			c36.017-10.049,46.075,1.976,51.563,13.22C705.342,798.362,711.978,859.56,697.371,863.958z"/>
		<path style="fill:#A9453D;" d="M634.603,851.456c-0.777,0.498-13.026,4.261-36.224-41.951c-3.641-7.254-6.122-22.948,2.366-36.814
			c8.488-13.866,38.587-24.768,63.593-29.513c25.007-4.745,31.01,9.327,36.899,23.468c6.182,14.845,24.035,27.067,24.035,27.067
			c-21.564,12.046-47.537-5.183-56.534-2.35c-8.998,2.833-12.176,17.014-12.852,21.56c-0.675,4.546-1.712,8.323-13.027,4.264
			c-11.315-4.06-5.117,16.034-3.305,19.876C639.555,837.063,641.093,847.298,634.603,851.456z"/>
		<g>
			<path style="fill:#2C3A64;" d="M487.957,1738.73h-34.47c-7.226,0-15.255-7.235-17.265-20.48
				c-2.01-13.256-16.863-20.481-20.079-31.325c-3.216-10.844,13.255-26.108,13.255-26.108l2.754-3.538l2.864-3.688l27.305,6.422
				c0,0,0.673,6.502,1.095,14.783c0.292,5.979,0.452,12.894,0.11,18.954c-0.804,14.461,4.05,30.028,16.893,32.842
				C493.273,1729.404,487.957,1738.73,487.957,1738.73z"/>
			<path style="fill:#2C3A64;" d="M727.923,1738.73h-91.372c-0.874-0.17-1.538-0.361-1.94-0.563
				c-6.1-3.055-4.191-26.41-3.457-33.626c0.141-1.337,0.241-2.12,0.241-2.12s32.128-25.697,36.55-6.02
				c0.141,0.612,0.302,1.216,0.473,1.809v0.01c5.577,18.411,30.51,26.772,44.912,29.104
				C724.335,1729.113,727.189,1735.525,727.923,1738.73z"/>
			<path style="fill:#F99746;" d="M709.506,1211.822c0,0-4.879,60.879-10.614,134.06c-7.795,99.409-17.169,221.517-18.097,244.649
				c-1.602,40.168-8.036,104.42-8.036,104.42s-15.253,15.266-45.783,8.832c0,0-27.205-91.723-34.976-188.77
				c-0.121-1.591-0.241-3.193-0.361-4.796c-7.229-98.794-18.47-306.829-18.47-306.829L709.506,1211.822z"/>
			<path style="fill:#ED7D2B;" d="M709.506,1211.822c0,0-4.879,60.879-10.614,134.06l-106.891,169.132
				c-0.121-1.591-0.241-3.193-0.361-4.796c-7.229-98.794-18.47-306.829-18.47-306.829L709.506,1211.822z"/>
			<path style="fill:#F99746;" d="M687.223,1219.053c0,0-87.951,220.479-145.782,324.094
				c-57.831,103.613-75.903,132.529-75.903,132.529s-33.132-13.253-36.145-22.289c0,0,22.115-200.031,60.843-248.794
				c21.884-27.553,47.59-110.24,48.795-139.155c1.205-28.915,7.831-86.145,7.831-86.145L687.223,1219.053z"/>
		</g>
		<g>
			<path style="fill:#FFB27D;" d="M486.648,1178.993l-0.93,14.181c0,0,9.352,25.19-16.851,38.111c0,0-11.216,4.524-11.671-4.207
				c-0.455-8.731,0.98-5.447,0.069-17.744c-0.912-12.296,3.922-23.915,12.055-27.829l6.673-7.7L486.648,1178.993z"/>
			<path style="fill:#1E3D70;" d="M476.414,1189.317c9.735,3.125,11.294,2.419,11.294,2.419s47.382-86.265,52.182-94.162
				c4.799-7.896,100.601-96.735,100.601-96.735l-24.62-91.806c0,0-108.962,141.1-120.729,161.347
				c-19.444,33.458-30.837,111.162-30.837,111.162S468.768,1186.862,476.414,1189.317z"/>
		</g>
		<path style="fill:#2A4E96;" d="M728.073,1036.884c-0.342,18.853-1.437,40.048-2.914,61.574c-0.091,1.276-0.181,2.553-0.271,3.829
			c-0.945,13.336-4.995,59.846-5.206,61.725c-4.804,48.821-9.838,87.392-10.773,87.984c-1.115,0.744-2.372,1.115-3.749,0.955
			c-12.803-1.608-51.002,1.296-82.276-5.508c-26.391-5.567-49.113-16.119-73.192-30.35c-3.195-1.889-10.482-6.894-9.889-10.633
			c0.583-4.109,1.658-10.049,3.025-17.516c4.744-25.969,12.934-70.64,15.728-122.918c0.542-9.738,1.336-19.355,2.361-28.813
			c2.683-24.631,6.985-48.027,12.753-68.81c10.723-38.611,26.481-68.177,46.248-79.744c2.583-1.447,16.482,7.397,29.245,15.587
			c11.788,7.558,24.2,9.648,36.269,8.593l10.623,11.748c12.864,14.954,26.561,34.862,30.3,63.162
			c0.281,2.09,0.522,4.311,0.724,6.673C728.114,1005.951,728.365,1020.543,728.073,1036.884z"/>
		<path style="fill:#1E3D70;" d="M728.073,1036.884c-0.342,18.853-1.437,40.048-2.914,61.574c-0.091,1.276-0.181,2.553-0.271,3.829
			c-73.131-45.776-84.397-129.541-84.397-129.541c35.978,1.578,64.559,9.849,86.588,21.677
			C728.114,1005.951,728.365,1020.543,728.073,1036.884z"/>
		<path style="fill:#2A4E96;" d="M912.852,1072.941c0.754-10.846-4.862-12.651-4.862-12.651s-110.265-19.982-119.638-22.932
			c-9.373-2.948-89.524-86.326-89.524-86.326s-30.722-34.647-55.878-26.997c-21.86,6.648-30.405,23.7-33.313,39.944
			c-3.466,19.358,5.456,38.836,22.22,49.117c37.628,23.08,112.962,68.555,130.703,73.756c39.488,11.577,145.581,0.928,145.581,0.928
			S912.259,1081.461,912.852,1072.941z"/>
	</g>
	<g>
		<g>
			<path style="fill:#AFCDFB;" d="M932.733,922.969H834.82v-97.914h97.913V922.969z M838.889,918.9h89.776v-89.777h-89.776V918.9z"
				/>
		</g>
		<polygon style="fill:#AFCDFB;" points="851.227,862.384 883.075,906.285 921.012,836.121 876.99,876.141 		"/>
	</g>
	<g>
		<g>
			<path style="fill:#AFCDFB;" d="M1077.217,804.596h-97.913v-97.913h97.913V804.596z M983.372,800.528h89.777v-89.777h-89.777
				V800.528z"/>
		</g>
		<polygon style="fill:#AFCDFB;" points="995.711,744.012 1027.558,787.912 1065.496,717.749 1021.474,757.769 		"/>
	</g>
	<g>
		<path style="fill:#FFB27D;" d="M2583.988,1119.374c0,0-2.248-22.331,9.431-21.566c11.68,0.765,14.771,6.121,13.467,10.413
			s-12.662,18.49-12.662,18.49L2583.988,1119.374z"/>
		<path style="fill:#F99746;" d="M2565.741,1238.09c-20.376,0.817-61.207-11.146-76.613-17.477
			c-14.627-6.007-27.292-12.444-38.092-18.74c-2.901-1.686-5.663-3.362-8.295-5.022c-27.796-17.533-40.734-32.728-40.734-32.728
			s52.1-45.042,73.115-33.249c24.655,13.843,67.165,58.563,74.344,53.973c8.085-5.171,30.646-68.552,30.646-68.552
			c14.854-2.83,18.069,8.405,18.069,8.405S2594.663,1236.931,2565.741,1238.09z"/>
		<path style="fill:#233862;" d="M2479.692,1711.388c0,0-2.136,24.705,3.087,27.275l66.831-0.137c0,0,0-7.713-10.734-9.427
			c-10.734-1.715-29.592-7.999-32.783-21.996C2502.901,1693.105,2479.692,1711.388,2479.692,1711.388z"/>
		<path style="fill:#2A4E96;" d="M2528.757,1412.391c-0.33,16.154-1.105,32.816-2.626,47.792
			c-7.218,71.059-9.754,156.914-10.792,173.467c-1.798,28.733-7.475,74.639-7.475,74.639s-11.259,10.688-33.205,5.588
			c0,0-18.183-66.116-22.244-135.733c-0.063-1.144-0.126-2.291-0.184-3.439c-0.472-9.203-0.965-19.729-1.468-31.076
			c-3.344-76.012-6.977-188.93-6.977-188.93l83.864-19.692C2527.651,1335.005,2529.58,1372.12,2528.757,1412.391z"/>
		<path style="fill:#233862;" d="M2528.757,1412.391c-21.254,36.669-61.766,104.227-77.993,131.236
			c-3.344-76.012-6.977-188.93-6.977-188.93l83.864-19.692C2527.651,1335.005,2529.58,1372.12,2528.757,1412.391z"/>
		<path style="fill:#FFB27D;" d="M2353.832,1400.445c0,0-5.204,20.412-4.352,24.948s5.936,19.898,9.104,23.711
			c3.17,3.813,3.299-16.568,5.405-19.77c2.107-3.201,0.966,7.608,2.654,8.493c1.689,0.885,4.504-8.188,5.759-11.404
			s-4.504-14.413-5.034-22.439C2366.837,1395.957,2353.832,1400.445,2353.832,1400.445z"/>
		<path style="fill:#233862;" d="M2313.21,1683.312c0,0-11.895,10.855-9.574,18.568c2.321,7.713,13.056,12.855,14.507,22.282
			c1.45,9.427,7.252,14.568,12.475,14.568c5.222,0,24.896,0,24.896,0s3.844-6.633-5.439-8.633c-9.284-2-12.785-13.077-12.204-23.361
			c0.58-10.284-0.87-23.996-0.87-23.996l-19.729-4.57L2313.21,1683.312z"/>
		<path style="fill:#2A4E96;" d="M2514.436,1356.418c0,0-78.506,167.972-120.283,241.674c-41.776,73.701-54.832,94.27-54.832,94.27
			s-23.935-9.428-26.11-15.855c0,0,15.976-142.284,43.953-176.969c15.809-19.6,34.378-78.416,35.249-98.983
			c0.87-20.567,19.211-69.659,19.211-69.659L2514.436,1356.418z"/>
		<path style="fill:#F99746;" d="M2529.063,1347.677c0,0-25.562,27.513-69.002,35.821c-19.063,3.649-57.76,7.175-67.358-6.398
			c-2.253-3.187-2.273-7.904-1.773-15.271c1.292-19.146,6.108-56.162-15.635-130.55c-2.025-6.92-3.39-13.556-4.182-19.883
			c-4.746-38.055,11.303-65.063,30.148-77.113c45.957-29.396,68.416-9.093,68.416-9.093s26.311,12.296,38.334,48.127
			C2532.053,1244.989,2529.063,1347.677,2529.063,1347.677z"/>
		<path style="fill:#FFB27D;" d="M2414.947,1126.593c0,0,26.308,8.533,50.309-1.335c0,0,4.633-2.423,0.837-7.637
			c0.412-5.031,0.328-4.567,0.383-8.247c0.293-8.507-0.132-13.274-0.132-13.274l-17.68-11.52l-16.775-11.037
			C2436.243,1108.396,2414.947,1126.593,2414.947,1126.593z"/>
		<path style="fill:#ED985F;" d="M2432.797,1086.938c0,0,12.584,18.76,33.679,22.437c0.293-8.507-0.267-17.202-0.267-17.202
			l-17.545-7.592L2432.797,1086.938z"/>
		<path style="fill:#FFB27D;" d="M2482.051,1091.616c0,0-42.588,15.893-52.063-10.347c-9.476-26.24-21.354-41.86,5.437-53.117
			c26.79-11.257,35.718-3.135,41.047,4.853C2481.799,1040.992,2492.885,1086.806,2482.051,1091.616z"/>
		<path style="fill:#2C3A64;" d="M2403.457,1031.102c-0.49-0.379-1.484-0.566-3.557-0.273c0,0,1.436-1.349,3.617-1.836
			c-0.135-2.937,0.386-8.283,5.051-10.479c0,0-2.359,1.927-2.105,5.026c4.531-6.961,15.873-13.616,50.127-17.617
			c45.144-5.272,36.116,26.082,31.031,30.611c-5.084,4.53-21.406-1.91-31.961,1.059c-10.554,2.97-9.532,18.865-12.749,21.71
			s-2.53-1.197-7.891-2.45c-5.36-1.252-4.218,6.995-1.749,12.017s-2.912,13.351-2.912,13.351s0,0-8.286-6.009
			c-8.287-6.01-20.885-35.908-19.091-43.166C2403.141,1032.402,2403.295,1031.754,2403.457,1031.102z"/>
		<path style="fill:#ED7D2B;" d="M2390.93,1361.828c1.292-19.146,6.108-56.162-15.635-130.55c-2.025-6.92-3.39-13.556-4.182-19.883
			l0.006-0.001c16.154-5.328,45.59,6.522,45.59,6.522S2423.629,1316.247,2390.93,1361.828z"/>
		<path style="fill:#F99746;" d="M2403.189,1133.069c0,0-33.346,18.889-44.754,61.028c-9.349,34.526-23.802,85.889-25.54,101.949
			s17.632,110.099,17.632,110.099s2.732,1.991,9.426,0.652c6.405-1.28,9.388-5.614,9.388-5.614s4.632-62.675,3.437-92.268
			c-0.498-12.296,56.917-90.045,87.903-100.061C2472.851,1204.922,2403.189,1133.069,2403.189,1133.069z"/>
		<path style="fill:#ED7D2B;" d="M2426.289,1110.697c0,0-5.567,2.722-16.367,17.087c0,0,20.108,25.22,49.135,21.929
			c0,0-3.58-13.068-3.395-21.372C2455.662,1128.341,2431.397,1125.638,2426.289,1110.697z"/>
		<path style="fill:#ED7D2B;" d="M2455.662,1128.341c0,0,15.504,4.045,19.225,15.193c0,0,3.287-9.588,0.391-15.001
			c-2.896-5.414-9.185-10.912-9.185-10.912S2468.211,1124.467,2455.662,1128.341z"/>
		<g>
			<g>
				<path style="fill:#FFFFFF;" d="M2669.04,1066.108c0,0-57.456-1.633-123.759,10.573l-6.926-17.456l-7.596-19.124
					c0,0,66.562-28.655,106.574-68.56L2669.04,1066.108z"/>
				<path style="fill:#F99746;" d="M2636.423,970.615l32.986,97.375l0,0c4.824-1.428,7.462-6.61,5.78-11.351l-29.032-81.816
					C2644.75,970.859,2640.273,968.924,2636.423,970.615L2636.423,970.615z"/>
				<path style="fill:#D7E1FF;" d="M2669.04,1066.108c0,0-57.456-1.633-123.759,10.573l-6.926-17.456
					C2600.654,1046.504,2669.04,1066.108,2669.04,1066.108z"/>
				<path style="fill:#F99746;" d="M2563.612,1073.172l-17.951,3.158c0.273,0.01-16.677,3.298-22.233-11.726
					c-0.51-1.026-0.836-2.044-1.064-3.242c-4.318-18.728,5.963-22.177,5.963-22.177l23.104-9.003l7.341,25.979c0,0,0,0-0.004,0.092
					L2563.612,1073.172z"/>
				<path style="fill:#ED7D2B;" d="M2563.612,1073.172l-17.951,3.158c0.273,0.01-16.677,3.298-22.233-11.726
					c10.157-7.388,35.344-8.443,35.344-8.443s0,0-0.004,0.092L2563.612,1073.172z"/>
			</g>
			<path style="fill:#D7E1FF;" d="M2604.934,1138.585L2604.934,1138.585c-6.414,1.282-12.711-2.917-13.993-9.331l-11.357-56.829
				c-1.282-6.414,2.917-12.711,9.331-13.993l0,0c6.414-1.281,12.711,2.918,13.992,9.332l11.358,56.829
				C2615.547,1131.007,2611.348,1137.304,2604.934,1138.585z"/>
		</g>
		<path style="fill:#FFB27D;" d="M2603.401,1083.554c0,0-8.783,3.5-7.173,7.368c1.609,3.867,12.778,9.185,14.54,6.133
			C2612.53,1094.004,2608.926,1080.291,2603.401,1083.554z"/>
		<path style="fill:#FFB27D;" d="M2583.818,1115.856c0,0-1.658-8.984-1.761-13.112c-0.104-4.128-1.298-7.247-0.326-7.364
			s1.509,0.604,1.905,1.931s2.795,9.347,2.795,9.347l-0.767,7.944L2583.818,1115.856z"/>
	</g>
</g>
</svg>
