<?xml version="1.0" encoding="utf-8"?>
<!-- Generator: Adobe Illustrator 27.5.0, SVG Export Plug-In . SVG Version: 6.00 Build 0)  -->
<svg version="1.1" xmlns="http://www.w3.org/2000/svg" xmlns:xlink="http://www.w3.org/1999/xlink" x="0px" y="0px"
	 viewBox="0 0 500 500" style="enable-background:new 0 0 500 500;" xml:space="preserve">
<g id="BACKGROUND">
	<rect style="fill:#FFFFFF;" width="500" height="500"/>
</g>
<g id="OBJETCS">
	<path style="fill:#CED4DD;" d="M79.429,403.746c0,0-53.782-0.416-66.051,7.534c-12.269,7.95,19.96,17.509,55.169,28.445
		c35.209,10.936,42.743,28.391,79.525,29.286c36.782,0.894,85.551,0,144.732,0s125.426,4.472,141.172-5.366
		c15.746-9.838,45.068-14.172,38.226-26.762s-4.645-20.906-84.91-25.244C307.027,407.302,79.429,403.746,79.429,403.746z"/>
	<g>
		<g>
			<path style="fill:#EAEAEA;" d="M124.762,414.457h-10.796c-5.116,0-9.263-4.147-9.263-9.263v-116.46
				c0-5.116,4.147-9.263,9.263-9.263h10.796c5.116,0,9.263,4.147,9.263,9.263v116.46
				C134.025,410.31,129.878,414.457,124.762,414.457z"/>
			<path style="fill:#EAEAEA;" d="M262.029,414.457h-10.796c-5.116,0-9.263-4.147-9.263-9.263v-116.46
				c0-5.116,4.147-9.263,9.263-9.263h10.796c5.116,0,9.263,4.147,9.263,9.263v116.46
				C271.292,410.31,267.144,414.457,262.029,414.457z"/>
			<path style="fill:#EAEAEA;" d="M232.708,413.427h-89.42c-5.116,0-9.263-4.147-9.263-9.263v-89.42
				c0-5.116,4.147-9.263,9.263-9.263h89.42c5.116,0,9.263,4.147,9.263,9.263v89.42C241.97,409.28,237.823,413.427,232.708,413.427z"
				/>
			<path style="fill:#EAEAEA;" d="M232.708,318.078h-89.42c-5.116,0-9.263-4.147-9.263-9.263v-78.941
				c0-5.116,4.147-9.263,9.263-9.263h89.42c5.116,0,9.263,4.147,9.263,9.263v78.941C241.97,313.931,237.823,318.078,232.708,318.078
				z"/>
			<rect x="116.432" y="414.457" style="fill:#EAEAEA;" width="4.887" height="7.276"/>
			<rect x="254.187" y="414.457" style="fill:#EAEAEA;" width="4.887" height="7.276"/>
		</g>
		<rect x="8.722" y="329.747" style="fill:#EAEAEA;" width="83.158" height="4.123"/>
		<polygon style="fill:#EAEAEA;" points="9.346,421.733 19.771,333.87 24.984,333.87 14.559,421.733 		"/>
		<polygon style="fill:#EAEAEA;" points="92.087,421.733 81.662,333.87 76.449,333.87 86.874,421.733 		"/>
		<path style="fill:#EAEAEA;" d="M41.55,290.848l18.234-22.703l-12.764-3.374c0,0-5.47-5.112-10.941-4.47
			c-5.47,0.642-10.941,9.321-3.282,17.017L41.55,290.848z"/>
		<rect x="20.034" y="325.128" style="fill:#EAEAEA;" width="22.61" height="4.619"/>
		<g>
			<polygon style="fill:#EAEAEA;" points="30.788,325.225 24.992,292.225 25.071,292.063 32.294,277.075 33.302,277.561 
				26.157,292.387 31.89,325.03 			"/>
		</g>
	</g>
	<g>
		<defs>
			<rect id="SVGID_1_" width="500" height="500"/>
		</defs>
		<clipPath id="SVGID_00000061458500956434764590000016763110705757942673_">
			<use xlink:href="#SVGID_1_"  style="overflow:visible;"/>
		</clipPath>
		<g style="clip-path:url(#SVGID_00000061458500956434764590000016763110705757942673_);">
			<g>
				<path style="fill:#E6A7AD;" d="M275.968,417.057c0,0-35.584-25.513-45.358-62.279c-9.774-36.766,6.842-104.992,0-130.499
					c0,0,22.42,40.882,30.697,72.194C269.584,327.786,278.321,381.225,275.968,417.057z"/>
				<g>
					<path style="fill:#FAD2D5;" d="M276.725,415.762c-1.606-0.788-3.141-1.747-4.648-2.706c-4.215-2.683-7.935-5.505-11.678-8.685
						c-5.74-4.877-11.049-10.259-15.918-16.003c-6.338-7.478-11.901-15.601-16.711-24.139c-5.946-10.556-10.71-21.743-14.388-33.283
						c-4.607-14.458-7.236-29.451-10.169-44.313c-2.436-12.344-4.797-24.703-7.018-37.088c-1.457-8.125-2.858-16.262-4.139-24.417
						c-0.423-2.696-0.833-5.394-1.221-8.095c-0.148-1.034-0.294-2.069-0.435-3.104c-0.019-0.143-0.096-0.708-0.073-0.539
						c0.023,0.172-0.055-0.412-0.073-0.548c-0.052-0.396-0.104-0.793-0.155-1.189c-0.213-1.664-0.207-3.494-0.588-5.129
						c-0.013-0.058-0.011-0.124-0.016-0.183c-0.854,0.354-1.707,0.707-2.561,1.061c0.734,0.85,1.443,1.72,2.151,2.591
						c2.089,2.571,3.864,4.856,5.741,7.335c6.894,9.108,13.363,18.541,19.476,28.189c8.885,14.023,17.007,28.535,24.275,43.461
						c8.682,17.831,16.126,36.273,22.014,55.216c6.518,20.971,11.133,42.575,13.203,64.45c0.265,2.801,0.487,5.607,0.671,8.414
						c0.126,1.917,3.127,1.931,3,0c-1.464-22.335-5.532-44.458-11.686-65.969c-5.599-19.57-12.901-38.64-21.497-57.086
						c-7.253-15.564-15.446-30.69-24.456-45.306c-6.444-10.452-13.301-20.658-20.63-30.511c-2.237-3.007-4.517-5.983-6.858-8.91
						c-1.021-1.276-2.008-2.647-3.14-3.829c-0.05-0.053-0.095-0.112-0.143-0.167c-0.825-0.955-2.661-0.213-2.561,1.061
						c0.09,1.144,0.232,2.285,0.369,3.423c0.475,3.954,1.039,7.898,1.632,11.837c1.093,7.257,2.302,14.496,3.563,21.725
						c1.992,11.424,4.123,22.825,6.326,34.21c1.432,7.401,2.897,14.796,4.386,22.185c1.549,7.686,3.038,15.386,5.065,22.964
						c3.331,12.448,7.845,24.598,13.641,36.112c4.704,9.345,10.275,18.236,16.682,26.508c4.989,6.442,10.49,12.492,16.5,17.996
						c4.234,3.878,8.722,7.503,13.467,10.74c2.177,1.486,4.416,2.961,6.773,4.154c0.103,0.052,0.205,0.107,0.309,0.158
						C276.938,419.2,278.46,416.613,276.725,415.762z"/>
				</g>
			</g>
			<path style="fill:#FAD2D5;" d="M392.997,422.175c0,0-15.265,3.628-20.559-20.612c-5.293-24.24,20.034-27.654,26.817-15.908
				c0,0-17.774-42.732,8.197-50.438c25.971-7.707,32.004,17.589,32.004,17.589s8.29-36.704,33.041-32.201s10.416,40.63,10.416,40.63
				s28.086-16.812,35.583,2.005c7.497,18.817-12.528,34.111-12.528,34.111s19.727-6.172,21.436,12.721
				C529.115,428.964,418.866,429.948,392.997,422.175z"/>
			<g>
				<path style="fill:#E6A7AD;" d="M438.595,418.149c-0.258-0.49-0.494-0.992-0.727-1.493c-0.767-1.646-1.136-2.531-1.767-4.115
					c-2.111-5.304-3.815-10.771-5.207-16.306c-4.718-18.763-5.713-38.4-3.344-57.584c1.615-13.079,4.868-25.956,9.424-38.314
					c4.552-12.345,9.814-24.481,15.109-36.523c6.588-14.98,13.536-29.86,21.532-44.149c2.661-4.756,5.437-9.453,8.588-13.903
					c0.099-0.139,0.325-0.421-0.115,0.146c-0.836-0.221-1.671-0.441-2.507-0.662c0.316,1.493,0.595,2.995,0.871,4.496
					c0.763,4.152,1.446,8.32,2.072,12.495c0.933,6.221,1.704,12.234,2.391,18.573c0.848,7.825,1.503,15.672,1.947,23.531
					c0.502,8.868,0.735,17.754,0.645,26.636c-0.096,9.44-0.558,18.88-1.498,28.274c-0.939,9.376-2.369,18.71-4.461,27.901
					c-2.043,8.974-4.712,17.835-8.284,26.324c-3.412,8.108-7.686,15.896-12.97,22.94c-5.113,6.816-11.279,12.909-18.295,17.757
					c-1.77,1.223-3.591,2.367-5.456,3.439c-1.673,0.962-0.164,3.555,1.514,2.59c7.638-4.392,14.501-10.074,20.312-16.693
					c5.872-6.69,10.707-14.242,14.619-22.227c4.063-8.294,7.191-17.033,9.61-25.94c2.507-9.23,4.25-18.65,5.492-28.129
					c1.24-9.466,1.947-18.998,2.254-28.538c0.296-9.189,0.221-18.389-0.153-27.574c-0.336-8.25-0.913-16.49-1.705-24.709
					c-0.662-6.873-1.477-13.73-2.434-20.568c-0.672-4.802-1.417-9.593-2.256-14.369c-0.392-2.231-0.714-4.516-1.261-6.716
					c-0.024-0.096-0.04-0.194-0.06-0.291c-0.217-1.025-1.819-1.548-2.507-0.662c-2.741,3.529-4.996,7.481-7.224,11.34
					c-7.549,13.074-14.079,26.744-20.279,40.498c-5.171,11.471-10.065,23.066-14.777,34.732
					c-5.176,12.814-9.431,25.844-11.826,39.482c-3.589,20.434-3.416,41.505,0.894,61.816c1.355,6.387,3.115,12.698,5.363,18.83
					c1.087,2.966,2.213,6.013,3.698,8.81c0.065,0.122,0.123,0.247,0.188,0.369C436.905,421.372,439.495,419.857,438.595,418.149z"/>
			</g>
			<g>
				<g>
					<g>
						<path style="fill:#FFFFFF;" d="M437.3,401.13c0,8.895-7.211,16.105-16.105,16.105H290.11c-8.894,0-16.105-7.21-16.105-16.105
							V87.769c0-8.895,7.21-16.105,16.105-16.105h20.754v3.955c0,5.913,4.793,10.706,10.706,10.706h67.772
							c5.913,0,10.706-4.793,10.706-10.706v-3.955h21.147c8.895,0,16.105,7.21,16.105,16.105V401.13z"/>
						<path style="fill:#404568;" d="M447.838,146.76h-1.624V93.06c0-16.931-13.725-30.657-30.657-30.657H295.564
							c-16.931,0-30.657,13.726-30.657,30.657v45.09c-0.138-0.021-0.276-0.042-0.42-0.042c-1.507,0-2.728,1.221-2.728,2.728v20.182
							c0,1.507,1.221,2.728,2.728,2.728c0.144,0,0.282-0.021,0.42-0.042v7.463c-0.138-0.021-0.276-0.042-0.42-0.042
							c-1.507,0-2.728,1.221-2.728,2.728v20.182c0,1.507,1.221,2.728,2.728,2.728c0.144,0,0.282-0.021,0.42-0.042v200.578
							c0,16.931,13.725,30.657,30.657,30.657h119.993c16.931,0,30.657-13.725,30.657-30.657V189.289h1.624
							c0.957,0,1.733-0.776,1.733-1.733v-39.062C449.572,147.536,448.795,146.76,447.838,146.76z M437.3,401.13
							c0,8.895-7.211,16.105-16.105,16.105H290.11c-8.894,0-16.105-7.21-16.105-16.105V87.769c0-8.895,7.21-16.105,16.105-16.105
							h20.754v3.955c0,5.913,4.793,10.706,10.706,10.706h67.772c5.913,0,10.706-4.793,10.706-10.706v-3.955h21.147
							c8.894,0,16.105,7.21,16.105,16.105V401.13z"/>
					</g>
				</g>
				
					<text transform="matrix(1 0 0 1 288.6226 129.1684)" style="fill:#404568; font-family:'Montserrat-SemiBold'; font-size:12px;">Hour</text>
				<text transform="matrix(1 0 0 1 288.6226 198.248)" style="fill:#404568; font-family:'Montserrat-SemiBold'; font-size:12px;">JAN</text>
				<path style="fill:#A0D0FC;" d="M319.221,156.209h-25.823c-2.637,0-4.776-2.138-4.776-4.775v-7.716
					c0-2.637,2.138-4.776,4.776-4.776h25.823c2.637,0,4.775,2.138,4.775,4.776v7.716
					C323.997,154.071,321.859,156.209,319.221,156.209z"/>
				<path style="fill:#A0D0FC;" d="M301.179,212.598h-10.751c-0.997,0-1.805-0.808-1.805-1.805v-2.088
					c0-0.997,0.808-1.805,1.805-1.805h10.751c0.997,0,1.805,0.808,1.805,1.805v2.088
					C302.983,211.79,302.175,212.598,301.179,212.598z"/>
				<path style="fill:#A0D0FC;" d="M320.866,212.598h-10.751c-0.997,0-1.805-0.808-1.805-1.805v-2.088
					c0-0.997,0.808-1.805,1.805-1.805h10.751c0.997,0,1.805,0.808,1.805,1.805v2.088
					C322.671,211.79,321.862,212.598,320.866,212.598z"/>
				<path style="fill:#A0D0FC;" d="M340.553,212.598h-10.751c-0.997,0-1.805-0.808-1.805-1.805v-2.088
					c0-0.997,0.808-1.805,1.805-1.805h10.751c0.997,0,1.805,0.808,1.805,1.805v2.088C342.358,211.79,341.55,212.598,340.553,212.598
					z"/>
				<path style="fill:#A0D0FC;" d="M360.24,212.598h-10.751c-0.997,0-1.805-0.808-1.805-1.805v-2.088
					c0-0.997,0.808-1.805,1.805-1.805h10.751c0.997,0,1.805,0.808,1.805,1.805v2.088C362.045,211.79,361.237,212.598,360.24,212.598
					z"/>
				<path style="fill:#A0D0FC;" d="M379.927,212.598h-10.751c-0.997,0-1.805-0.808-1.805-1.805v-2.088
					c0-0.997,0.808-1.805,1.805-1.805h10.751c0.997,0,1.805,0.808,1.805,1.805v2.088
					C381.732,211.79,380.924,212.598,379.927,212.598z"/>
				<path style="fill:#A0D0FC;" d="M399.614,212.598h-10.751c-0.997,0-1.805-0.808-1.805-1.805v-2.088
					c0-0.997,0.808-1.805,1.805-1.805h10.751c0.997,0,1.805,0.808,1.805,1.805v2.088
					C401.419,211.79,400.611,212.598,399.614,212.598z"/>
				<path style="fill:#A0D0FC;" d="M419.301,212.598H408.55c-0.997,0-1.805-0.808-1.805-1.805v-2.088
					c0-0.997,0.808-1.805,1.805-1.805h10.751c0.997,0,1.805,0.808,1.805,1.805v2.088
					C421.106,211.79,420.298,212.598,419.301,212.598z"/>
				<path style="fill:#DFE6EF;" d="M320.866,227.8h-10.751c-0.997,0-1.805-0.808-1.805-1.805v-2.089
					c0-0.997,0.808-1.805,1.805-1.805h10.751c0.997,0,1.805,0.808,1.805,1.805v2.089C322.671,226.992,321.862,227.8,320.866,227.8z"
					/>
				<path style="fill:#DFE6EF;" d="M340.553,227.8h-10.751c-0.997,0-1.805-0.808-1.805-1.805v-2.089
					c0-0.997,0.808-1.805,1.805-1.805h10.751c0.997,0,1.805,0.808,1.805,1.805v2.089C342.358,226.992,341.55,227.8,340.553,227.8z"
					/>
				<path style="fill:#DFE6EF;" d="M360.24,227.8h-10.751c-0.997,0-1.805-0.808-1.805-1.805v-2.089c0-0.997,0.808-1.805,1.805-1.805
					h10.751c0.997,0,1.805,0.808,1.805,1.805v2.089C362.045,226.992,361.237,227.8,360.24,227.8z"/>
				<path style="fill:#DFE6EF;" d="M379.927,227.8h-10.751c-0.997,0-1.805-0.808-1.805-1.805v-2.089
					c0-0.997,0.808-1.805,1.805-1.805h10.751c0.997,0,1.805,0.808,1.805,1.805v2.089C381.732,226.992,380.924,227.8,379.927,227.8z"
					/>
				<path style="fill:#DFE6EF;" d="M399.614,227.8h-10.751c-0.997,0-1.805-0.808-1.805-1.805v-2.089
					c0-0.997,0.808-1.805,1.805-1.805h10.751c0.997,0,1.805,0.808,1.805,1.805v2.089C401.419,226.992,400.611,227.8,399.614,227.8z"
					/>
				<path style="fill:#DFE6EF;" d="M419.301,227.8H408.55c-0.997,0-1.805-0.808-1.805-1.805v-2.089c0-0.997,0.808-1.805,1.805-1.805
					h10.751c0.997,0,1.805,0.808,1.805,1.805v2.089C421.106,226.992,420.298,227.8,419.301,227.8z"/>
				<path style="fill:#DFE6EF;" d="M320.866,243.002h-10.751c-0.997,0-1.805-0.808-1.805-1.805v-2.089
					c0-0.997,0.808-1.805,1.805-1.805h10.751c0.997,0,1.805,0.808,1.805,1.805v2.089
					C322.671,242.194,321.862,243.002,320.866,243.002z"/>
				<path style="fill:#DFE6EF;" d="M301.179,243.002h-10.751c-0.997,0-1.805-0.808-1.805-1.805v-2.089
					c0-0.997,0.808-1.805,1.805-1.805h10.751c0.997,0,1.805,0.808,1.805,1.805v2.089
					C302.983,242.194,302.175,243.002,301.179,243.002z"/>
				<path style="fill:#DFE6EF;" d="M340.553,243.002h-10.751c-0.997,0-1.805-0.808-1.805-1.805v-2.089
					c0-0.997,0.808-1.805,1.805-1.805h10.751c0.997,0,1.805,0.808,1.805,1.805v2.089
					C342.358,242.194,341.55,243.002,340.553,243.002z"/>
				<path style="fill:#DFE6EF;" d="M360.24,243.002h-10.751c-0.997,0-1.805-0.808-1.805-1.805v-2.089
					c0-0.997,0.808-1.805,1.805-1.805h10.751c0.997,0,1.805,0.808,1.805,1.805v2.089
					C362.045,242.194,361.237,243.002,360.24,243.002z"/>
				<path style="fill:#DFE6EF;" d="M379.927,243.002h-10.751c-0.997,0-1.805-0.808-1.805-1.805v-2.089
					c0-0.997,0.808-1.805,1.805-1.805h10.751c0.997,0,1.805,0.808,1.805,1.805v2.089
					C381.732,242.194,380.924,243.002,379.927,243.002z"/>
				<path style="fill:#DFE6EF;" d="M399.614,243.002h-10.751c-0.997,0-1.805-0.808-1.805-1.805v-2.089
					c0-0.997,0.808-1.805,1.805-1.805h10.751c0.997,0,1.805,0.808,1.805,1.805v2.089
					C401.419,242.194,400.611,243.002,399.614,243.002z"/>
				<path style="fill:#DFE6EF;" d="M419.301,243.002H408.55c-0.997,0-1.805-0.808-1.805-1.805v-2.089
					c0-0.997,0.808-1.805,1.805-1.805h10.751c0.997,0,1.805,0.808,1.805,1.805v2.089
					C421.106,242.194,420.298,243.002,419.301,243.002z"/>
				<path style="fill:#DFE6EF;" d="M320.866,258.204h-10.751c-0.997,0-1.805-0.808-1.805-1.805v-2.089
					c0-0.997,0.808-1.805,1.805-1.805h10.751c0.997,0,1.805,0.808,1.805,1.805v2.089
					C322.671,257.396,321.862,258.204,320.866,258.204z"/>
				<path style="fill:#DFE6EF;" d="M301.179,258.204h-10.751c-0.997,0-1.805-0.808-1.805-1.805v-2.089
					c0-0.997,0.808-1.805,1.805-1.805h10.751c0.997,0,1.805,0.808,1.805,1.805v2.089
					C302.983,257.396,302.175,258.204,301.179,258.204z"/>
				<path style="fill:#DFE6EF;" d="M340.553,258.204h-10.751c-0.997,0-1.805-0.808-1.805-1.805v-2.089
					c0-0.997,0.808-1.805,1.805-1.805h10.751c0.997,0,1.805,0.808,1.805,1.805v2.089
					C342.358,257.396,341.55,258.204,340.553,258.204z"/>
				<path style="fill:#A0D0FC;" d="M360.24,258.204h-10.751c-0.997,0-1.805-0.808-1.805-1.805v-2.089
					c0-0.997,0.808-1.805,1.805-1.805h10.751c0.997,0,1.805,0.808,1.805,1.805v2.089
					C362.045,257.396,361.237,258.204,360.24,258.204z"/>
				<path style="fill:#DFE6EF;" d="M379.927,258.204h-10.751c-0.997,0-1.805-0.808-1.805-1.805v-2.089
					c0-0.997,0.808-1.805,1.805-1.805h10.751c0.997,0,1.805,0.808,1.805,1.805v2.089
					C381.732,257.396,380.924,258.204,379.927,258.204z"/>
				<path style="fill:#DFE6EF;" d="M399.614,258.204h-10.751c-0.997,0-1.805-0.808-1.805-1.805v-2.089
					c0-0.997,0.808-1.805,1.805-1.805h10.751c0.997,0,1.805,0.808,1.805,1.805v2.089
					C401.419,257.396,400.611,258.204,399.614,258.204z"/>
				<path style="fill:#DFE6EF;" d="M419.301,258.204H408.55c-0.997,0-1.805-0.808-1.805-1.805v-2.089
					c0-0.997,0.808-1.805,1.805-1.805h10.751c0.997,0,1.805,0.808,1.805,1.805v2.089
					C421.106,257.396,420.298,258.204,419.301,258.204z"/>
				<path style="fill:#DFE6EF;" d="M320.866,273.405h-10.751c-0.997,0-1.805-0.808-1.805-1.805v-2.089
					c0-0.997,0.808-1.805,1.805-1.805h10.751c0.997,0,1.805,0.808,1.805,1.805v2.089
					C322.671,272.597,321.862,273.405,320.866,273.405z"/>
				<path style="fill:#DFE6EF;" d="M301.179,273.405h-10.751c-0.997,0-1.805-0.808-1.805-1.805v-2.089
					c0-0.997,0.808-1.805,1.805-1.805h10.751c0.997,0,1.805,0.808,1.805,1.805v2.089
					C302.983,272.597,302.175,273.405,301.179,273.405z"/>
				<path style="fill:#DFE6EF;" d="M340.553,273.405h-10.751c-0.997,0-1.805-0.808-1.805-1.805v-2.089
					c0-0.997,0.808-1.805,1.805-1.805h10.751c0.997,0,1.805,0.808,1.805,1.805v2.089
					C342.358,272.597,341.55,273.405,340.553,273.405z"/>
				<path style="fill:#DFE6EF;" d="M360.24,273.405h-10.751c-0.997,0-1.805-0.808-1.805-1.805v-2.089
					c0-0.997,0.808-1.805,1.805-1.805h10.751c0.997,0,1.805,0.808,1.805,1.805v2.089
					C362.045,272.597,361.237,273.405,360.24,273.405z"/>
				<path style="fill:#DFE6EF;" d="M379.927,273.405h-10.751c-0.997,0-1.805-0.808-1.805-1.805v-2.089
					c0-0.997,0.808-1.805,1.805-1.805h10.751c0.997,0,1.805,0.808,1.805,1.805v2.089
					C381.732,272.597,380.924,273.405,379.927,273.405z"/>
				<path style="fill:#DFE6EF;" d="M399.614,273.405h-10.751c-0.997,0-1.805-0.808-1.805-1.805v-2.089
					c0-0.997,0.808-1.805,1.805-1.805h10.751c0.997,0,1.805,0.808,1.805,1.805v2.089
					C401.419,272.597,400.611,273.405,399.614,273.405z"/>
				<path style="fill:#DFE6EF;" d="M419.301,273.405H408.55c-0.997,0-1.805-0.808-1.805-1.805v-2.089
					c0-0.997,0.808-1.805,1.805-1.805h10.751c0.997,0,1.805,0.808,1.805,1.805v2.089
					C421.106,272.597,420.298,273.405,419.301,273.405z"/>
				<path style="fill:#DFE6EF;" d="M320.866,288.607h-10.751c-0.997,0-1.805-0.808-1.805-1.805v-2.089
					c0-0.997,0.808-1.805,1.805-1.805h10.751c0.997,0,1.805,0.808,1.805,1.805v2.089
					C322.671,287.799,321.862,288.607,320.866,288.607z"/>
				<path style="fill:#DFE6EF;" d="M301.179,288.607h-10.751c-0.997,0-1.805-0.808-1.805-1.805v-2.089
					c0-0.997,0.808-1.805,1.805-1.805h10.751c0.997,0,1.805,0.808,1.805,1.805v2.089
					C302.983,287.799,302.175,288.607,301.179,288.607z"/>
				<path style="fill:#DFE6EF;" d="M340.553,288.607h-10.751c-0.997,0-1.805-0.808-1.805-1.805v-2.089
					c0-0.997,0.808-1.805,1.805-1.805h10.751c0.997,0,1.805,0.808,1.805,1.805v2.089
					C342.358,287.799,341.55,288.607,340.553,288.607z"/>
				<path style="fill:#DFE6EF;" d="M360.24,288.607h-10.751c-0.997,0-1.805-0.808-1.805-1.805v-2.089
					c0-0.997,0.808-1.805,1.805-1.805h10.751c0.997,0,1.805,0.808,1.805,1.805v2.089
					C362.045,287.799,361.237,288.607,360.24,288.607z"/>
				<path style="fill:#DFE6EF;" d="M379.927,288.607h-10.751c-0.997,0-1.805-0.808-1.805-1.805v-2.089
					c0-0.997,0.808-1.805,1.805-1.805h10.751c0.997,0,1.805,0.808,1.805,1.805v2.089
					C381.732,287.799,380.924,288.607,379.927,288.607z"/>
				<path style="fill:#DFE6EF;" d="M399.614,288.607h-10.751c-0.997,0-1.805-0.808-1.805-1.805v-2.089
					c0-0.997,0.808-1.805,1.805-1.805h10.751c0.997,0,1.805,0.808,1.805,1.805v2.089
					C401.419,287.799,400.611,288.607,399.614,288.607z"/>
				<path style="fill:#DFE6EF;" d="M419.301,288.607H408.55c-0.997,0-1.805-0.808-1.805-1.805v-2.089
					c0-0.997,0.808-1.805,1.805-1.805h10.751c0.997,0,1.805,0.808,1.805,1.805v2.089
					C421.106,287.799,420.298,288.607,419.301,288.607z"/>
				<path style="fill:#DFE6EF;" d="M360.054,156.209h-25.823c-2.637,0-4.776-2.138-4.776-4.775v-7.716
					c0-2.637,2.138-4.776,4.776-4.776h25.823c2.637,0,4.775,2.138,4.775,4.776v7.716
					C364.829,154.071,362.691,156.209,360.054,156.209z"/>
				<path style="fill:#DFE6EF;" d="M403.058,156.209h-25.823c-2.637,0-4.775-2.138-4.775-4.775v-7.716
					c0-2.637,2.138-4.776,4.775-4.776h25.823c2.638,0,4.776,2.138,4.776,4.776v7.716
					C407.834,154.071,405.696,156.209,403.058,156.209z"/>
				
					<text transform="matrix(1 0 0 1 288.6226 324.0963)" style="fill:#404568; font-family:'Montserrat-SemiBold'; font-size:12px;">Note</text>
				<path style="fill:#A0D0FC;" d="M416.331,351.137H293.398c-2.637,0-4.776-2.138-4.776-4.776v-7.716
					c0-2.637,2.138-4.775,4.776-4.775h122.933c2.638,0,4.776,2.138,4.776,4.775v7.716
					C421.106,348.999,418.968,351.137,416.331,351.137z"/>
				<line style="fill:none;stroke:#DFE6EF;stroke-miterlimit:10;" x1="288.623" y1="369.276" x2="421.106" y2="369.276"/>
				<line style="fill:none;stroke:#DFE6EF;stroke-miterlimit:10;" x1="288.623" y1="383.611" x2="421.106" y2="383.611"/>
				<line style="fill:none;stroke:#DFE6EF;stroke-miterlimit:10;" x1="288.623" y1="397.946" x2="421.106" y2="397.946"/>
			</g>
		</g>
	</g>
	<g>
		<path style="fill:#93B0F0;" d="M102.133,122.815c0,0-19.873,2.769-24.108,11.24c-4.235,8.471-7.167,33.556-9.285,43.167
			c-2.118,9.611-3.747,19.873-3.747,19.873s-2.28,4.561-3.421,18.082c-1.14,13.52-2.118,29.484-2.118,29.484
			s5.701,2.932,11.728,0.977c0,0,4.561-15.475,7.493-26.715c2.932-11.24,11.24-39.095,11.24-39.095l-2.118,48.706
			c0,0,13.846,9.774,39.258,7.005s33.882-10.588,33.882-10.588s-2.769-18.407-3.747-36c-0.977-17.593-0.326-26.063-0.326-26.063
			s22.968,14.335,33.882,18.57c10.914,4.235,57.828-1.14,57.828-1.14v-12.869c0,0-18.733-0.814-30.461-1.14
			c-11.729-0.326-14.986-0.163-14.986-0.163s-24.109-22.154-35.674-30.38c-11.565-8.226-12.706-10.344-31.357-12.787
			L102.133,122.815z"/>
		<path style="fill:#D2796F;" d="M97.938,69.386c0,0-0.156,14.498,0,20.851c0.156,6.353,8.415,17.756,11.375,21.014
			c2.961,3.258,14.804,2.118,17.453,0c2.649-2.118,7.791-12.712,9.194-16.7c1.402-3.988,0-22.558,0-22.558
			s-7.012-7.167-19.478-7.493C116.482,64.499,109.937,70.852,97.938,69.386z"/>
		<path style="fill:#D2796F;" d="M98.224,90.236c-0.053-2.061-0.071-4.979-0.072-7.981c-0.26-1.06-1.332-4.425-4.489-4.562
			c-3.747-0.163-5.864,19.222,5.213,16.615c0.085-0.02,0.156-0.044,0.238-0.064C98.581,92.789,98.254,91.424,98.224,90.236z"/>
		<g>
			<path style="fill:#313440;" d="M142.817,69.712c-0.623-8.308-3.74-13.52-10.285-14.172c-6.545-0.652-10.129-5.538-16.83-5.375
				c-6.701,0.163-17.453,2.118-19.79,12.38c0,0-2.649-1.466-3.896,1.955c-0.869,2.385,0.004,9.518,0.612,13.621
				c0.296-0.287,0.614-0.441,0.946-0.426c3.02,0.137,4.045,3.502,4.294,4.562c0,0.132,0,0.263,0,0.394
				c-0.005-6.366,0.069-13.264,0.069-13.264c11.999,1.466,18.544-4.887,18.544-4.887c12.466,0.326,19.478,7.493,19.478,7.493
				s0.404,5.357,0.561,10.935l0.062-0.021C136.584,82.906,143.44,78.019,142.817,69.712z"/>
			<path style="fill:#313440;" d="M97.87,83.028c0,0.277,0.001,0.552,0.002,0.827C97.871,83.58,97.87,83.305,97.87,83.028z"/>
		</g>
		<path style="fill:#D2796F;" d="M126.957,111.071c-0.063,0.057-0.131,0.131-0.191,0.179c-2.649,2.118-14.492,3.258-17.453,0
			c-0.743-0.817-1.819-2.148-3.018-3.782h0c0,0,2.19,8.343,0.887,12.579c0,0,3.747,4.561,6.679,4.561c0,0-1.303,2.769-1.792,4.561
			c0,0,6.044,3.997,14.514-0.075c0,0-0.18-2.694-1.971-4.649c0,0,2.769-2.28,5.213-4.072
			C129.825,120.372,126.841,116.764,126.957,111.071z"/>
		<path style="fill:#C0D5FC;" d="M107.183,120.046c0,0-3.014,0-5.05,2.769c0,0,1.466,9.285,8.145,14.335c0,0,0-3.421,1.792-7.982
			c0.489-1.792,1.792-4.561,1.792-4.561C110.929,124.607,107.183,120.046,107.183,120.046z"/>
		<path style="fill:#C0D5FC;" d="M124.613,124.444c0,0,3.095,4.154,2.443,11.321c0,0,6.353-2.28,9.041-12.787
			c0,0-2.118-2.932-6.271-2.606L124.613,124.444z"/>
		<path style="fill:#313440;" d="M60.231,232.88c0.713,1.061,1.705,1.824,2.743,2.423c1.056,0.583,2.219,0.945,3.411,1.148
			c1.188,0.25,2.422,0.256,3.66,0.286l1.871-0.073c0.628-0.037,1.254-0.108,1.899-0.117c-0.595,0.23-1.211,0.399-1.823,0.601
			c-0.622,0.15-1.257,0.258-1.894,0.367c-0.642,0.059-1.29,0.111-1.941,0.108c-0.652-0.033-1.305-0.056-1.952-0.189
			c-1.287-0.239-2.572-0.689-3.649-1.475C61.485,235.19,60.593,234.118,60.231,232.88z"/>
		<path style="fill:#313440;" d="M235.273,181.618c0.415-1.19,0.678-2.391,0.906-3.595c0.212-1.207,0.364-2.42,0.457-3.64
			c0.106-1.22,0.132-2.446,0.155-3.68l0.005-1.859c-0.004-0.622-0.028-1.245,0.002-1.881c0.385,1.202,0.642,2.443,0.773,3.701
			c0.137,1.258,0.154,2.53,0.061,3.797c-0.117,1.265-0.32,2.527-0.698,3.745C236.555,179.417,236.058,180.617,235.273,181.618z"/>
		<path style="fill:#313440;" d="M89.916,179.829c0.316-2.769,0.926-5.462,1.607-8.135c0.71-2.666,1.494-5.313,2.574-7.883
			c-0.314,2.77-0.924,5.462-1.607,8.135C91.777,174.612,90.993,177.258,89.916,179.829z"/>
		<path style="fill:#313440;" d="M156.866,162.888c-0.463-2.447-0.667-4.892-0.846-7.339c-0.154-2.451-0.271-4.887-0.24-7.376
			c0.755,2.38,1.054,4.851,1.237,7.309C157.163,157.945,157.191,160.416,156.866,162.888z"/>
		<path style="fill:#D2796F;" d="M71.02,252.535c-1.683-3.095-0.737-6.641-0.737-6.641l-0.009-0.004
			c-4.01,0.993-7.74-0.023-9.592-0.712l-0.002,0.001c0,0-0.356,3.011-1.224,6.812c-0.869,3.801-2.063,6.19-0.977,11.403
			c1.086,5.213,3.041,12.815,4.778,14.878c1.737,2.063,4.561,4.072,5.918,3.801c1.358-0.271,0.815-1.683,0.815-1.683
			s1.412-0.543,0.869-2.661c0,0,0.846-1.52,0.124-2.986c-0.721-1.466-2.894-2.281-3.762-4.344c-0.869-2.063-0.434-6.136,0.76-6.244
			c1.194-0.109,1.303,2.118,1.357,4.887c0.054,2.769,1.683,3.747,2.932,3.204c1.249-0.543,0.706-10.642,0.434-12.326
			C72.432,258.236,72.703,255.63,71.02,252.535z"/>
		<path style="fill:#313440;" d="M69.988,280.39c-0.575-0.922-1.334-1.648-2.126-2.312c-0.204-0.177-0.4-0.291-0.621-0.504
			l-0.346-0.359l-0.245-0.399c-0.285-0.546-0.426-1.114-0.523-1.669c-0.165-1.12-0.147-2.223-0.023-3.308
			c0.122-1.084,0.341-2.153,0.71-3.183c0.044,1.09,0.044,2.159,0.07,3.218c0.035,1.056,0.065,2.11,0.23,3.112
			c0.067,0.502,0.192,0.987,0.379,1.404l0.147,0.304l0.193,0.238c0.15,0.174,0.391,0.377,0.564,0.582
			C69.142,278.328,69.796,279.298,69.988,280.39z"/>
		<path style="fill:#313440;" d="M70.857,277.729c-1.083-0.765-2.019-1.542-2.991-2.341c-0.522-0.459-0.965-1.031-1.208-1.683
			c-0.251-0.641-0.342-1.354-0.159-2.005c0.47,1.236,1.134,2.178,2.014,2.926c0.483,0.419,0.96,0.88,1.36,1.396
			C70.276,276.536,70.638,277.093,70.857,277.729z"/>
		<path style="fill:#4B6CD8;" d="M160.938,224.951c0,0-8.471,7.819-33.882,10.588c-25.412,2.769-39.258-7.005-39.258-7.005
			s-1.629,31.927,3.584,63.203c5.213,31.276,4.887,34.86,5.864,51.149c0.977,16.29,1.629,70.045,1.629,70.045
			s14.661,11.729,31.276,0c0,0-0.977-31.276-3.258-55.384c-2.281-24.109,4.561-85.848,4.561-85.848s15.312,33.721,11.729,54.246
			c-3.584,20.525,2.281,82.751,2.281,82.751s17.267,8.796,30.299-7.167c0,0-2.606-43.982-3.258-88.289
			S160.938,224.951,160.938,224.951z"/>
		<path style="fill:#313440;" d="M123.841,416.372c-6.824,2.685-12.983,1.892-17.477,0.391l0,0c0,0-2.71,10.938-4.665,18.323
			c-1.955,7.385,0,12.597,9.991,12.814c9.991,0.217,16.724-0.869,18.462-3.909c1.738-3.041-3.475-9.339-4.778-17.81
			C124.558,420.882,124.082,417.879,123.841,416.372z"/>
		<path style="fill:#313440;" d="M198.35,419.883c-4.984-2.791-19.111-7.781-24.59-16.14c-7.088,7.167-15.049,7.896-20.72,7.123
			c-0.214,4.167-0.369,13.244,2.305,13.578c3.475,0.434,10.642-1.494,19.113,3.054c8.471,4.548,19.548,6.503,23.891,5.634
			C202.694,432.263,203.78,422.923,198.35,419.883z"/>
		<path style="fill:#313440;" d="M95.4,232.227c0.219,2.64,0.199,5.292,0.075,7.939c-0.117,2.648-0.413,5.29-0.861,7.911
			c-0.472,2.614-1.096,5.219-2.08,7.707c-0.992,2.457-2.272,4.931-4.341,6.635c0.879-0.991,1.589-2.098,2.151-3.276
			c0.589-1.163,1.064-2.38,1.466-3.62c0.79-2.486,1.376-5.039,1.819-7.62c0.467-2.578,0.784-5.185,1.082-7.798
			c0.149-1.307,0.268-2.618,0.372-3.931C95.218,234.862,95.298,233.547,95.4,232.227z"/>
		<path style="fill:#313440;" d="M133.843,234.357c0.535,2.499,0.873,5.031,1.14,7.57c0.279,2.539,0.395,5.095,0.43,7.653
			c0.021,2.557-0.1,5.126-0.46,7.67c-0.167,1.273-0.444,2.532-0.74,3.781l-0.617,1.829c-0.257,0.591-0.553,1.163-0.838,1.73
			l0.586-1.812l0.391-1.854c0.195-1.249,0.382-2.494,0.454-3.757c0.175-2.518,0.268-5.045,0.225-7.578
			c-0.01-2.532-0.099-5.066-0.194-7.604L133.843,234.357z"/>
		<path style="fill:#313440;" d="M156.238,227.927c0.21,1.045,0.404,2.085,0.676,3.109c0.232,1.03,0.5,2.051,0.795,3.062
			c0.597,2.02,1.258,4.014,2.053,5.953c0.757,1.957,1.734,3.811,2.761,5.637l0.82,1.344c0.28,0.445,0.61,0.853,0.91,1.286
			c0.556,0.906,1.308,1.647,1.942,2.514c-1.634-1.362-3.115-2.947-4.319-4.73c-1.209-1.775-2.242-3.679-3.038-5.674
			c-0.792-1.996-1.442-4.047-1.87-6.145C156.534,232.189,156.232,230.063,156.238,227.927z"/>
		<g>
			<path style="fill:#313440;" d="M88.072,222.238c2.898,1.125,5.862,2.059,8.864,2.835c2.994,0.803,6.023,1.469,9.077,1.979
				c6.104,1.027,12.294,1.551,18.474,1.375c3.088-0.077,6.174-0.29,9.238-0.694c3.059-0.434,6.1-1,9.099-1.757
				c2.996-0.758,5.963-1.664,8.843-2.806c2.921-1.048,5.706-2.422,8.498-3.792c-5.339,3.186-11.119,5.684-17.144,7.341
				c-6.022,1.682-12.264,2.512-18.51,2.706c-6.25,0.094-12.509-0.422-18.635-1.62C99.762,226.582,93.727,224.845,88.072,222.238z"/>
		</g>
		<path style="fill:#D2796F;" d="M248.576,168.48c0,0,3.964-1.52,7.113-2.932c3.149-1.412,5.973-2.824,10.534-4.127
			c4.561-1.303,7.819-1.846,8.688-0.76c0.869,1.086-2.606,2.895-5.538,3.619c-2.932,0.725-3.475,2.683-3.475,2.683
			s4.694,0.648,7.56,0.431c2.866-0.217,6.232-1.629,8.187-2.498c1.955-0.869,4.018-2.606,5.213-1.738c0,0,1.303,0.109,1.738,1.846
			c0.434,1.738-4.235,4.561-4.235,4.561s-0.326,1.195-3.584,3.584c-3.258,2.389-6.082,3.584-6.082,3.584s-4.127,2.824-12.597,4.127
			c-8.471,1.303-9.991-2.281-13.52-2.389V168.48z"/>
		<path style="fill:#313440;" d="M269.698,173.15c1.581-0.405,3.162-0.959,4.366-1.896c0.291-0.24,0.548-0.508,0.744-0.801
			c0.215-0.314,0.448-0.697,0.695-1.029c0.507-0.678,1.054-1.335,1.81-1.872c0.385-0.241,0.848-0.517,1.481-0.443
			c0.314,0.032,0.594,0.187,0.818,0.402c0.265,0.294,0.327,0.605,0.345,0.858c0.022,1.003-0.276,1.777-0.577,2.568
			c-0.627,1.551-1.456,3.005-2.515,4.276c0.727-1.473,1.298-3.006,1.777-4.532c0.208-0.752,0.442-1.575,0.372-2.217
			c0.03-0.455-0.557-0.538-1.143-0.084c-0.595,0.396-1.127,1.004-1.618,1.616c-0.259,0.311-0.469,0.619-0.735,0.965
			c-0.278,0.376-0.628,0.673-0.994,0.918C273.041,172.843,271.337,173.118,269.698,173.15z"/>
		<path style="fill:#313440;" d="M284.359,169.566c0.053-0.842,0.141-1.67,0.09-2.426c-0.03-0.362-0.127-0.74-0.258-0.808
			c-0.088-0.065-0.335-0.096-0.649,0.063c-0.632,0.27-1.281,0.803-1.941,1.269c-0.66,0.483-1.341,0.975-2.1,1.36
			c0.485-0.698,1.006-1.339,1.585-1.946c0.588-0.602,1.188-1.193,2.068-1.604c0.226-0.092,0.486-0.166,0.783-0.173
			c0.304,0.005,0.635,0.085,0.901,0.343c0.463,0.536,0.418,1.069,0.389,1.509C285.124,168.049,284.806,168.841,284.359,169.566z"/>
		<path style="fill:#313440;" d="M107.588,116.961c4.248,1.389,12.117,2.687,19.598-2.88c-0.16-0.922-0.251-1.928-0.229-3.011
			c-0.063,0.057-0.131,0.131-0.191,0.179c-2.649,2.118-14.492,3.258-17.453,0c-0.743-0.817-1.819-2.148-3.018-3.782h0
			C106.296,107.467,107.66,112.683,107.588,116.961z"/>
		<path style="fill:#313440;" d="M97.869,82.255c0.067,2.061,0.123,4.048,0.328,6.032c0.081,0.993,0.221,1.977,0.375,2.964
			c0.141,0.994,0.37,1.966,0.541,2.993c-0.556-0.87-1.009-1.819-1.3-2.814c-0.318-0.99-0.508-2.016-0.61-3.048
			c-0.089-1.033-0.109-2.073,0.001-3.103C97.304,84.251,97.496,83.225,97.869,82.255z"/>
		<polygon style="fill:#313440;" points="155.78,148.173 174.472,173.296 156.866,162.888 		"/>
		<polygon style="fill:#313440;" points="94.097,163.811 88.606,209.95 89.916,179.829 		"/>
		<path style="fill:#313440;" d="M131.454,271.7l2.141-8.841c0,0,6.764,15.847,11.108,35.829
			c4.344,19.982-2.604,40.833-2.604,40.833s1.952-11.077,1.518-21.068C143.183,308.462,137.101,282.938,131.454,271.7z"/>
		<path style="fill:#313440;" d="M110.278,137.15c0,0,1.76-3.893,5.726-6.467l-3.934-1.515
			C112.07,129.168,110.359,133.566,110.278,137.15z"/>
		<path style="fill:#313440;" d="M126.584,129.093c0,0-2.072,1-3.513,1.321c0,0,3.659,2.338,3.985,5.352
			C127.056,135.766,127.969,132.107,126.584,129.093z"/>
	</g>
</g>
</svg>
